<svg viewBox="0 0 138.65 48.96" xmlns="http://www.w3.org/2000/svg" xmlns:xlink="http://www.w3.org/1999/xlink" id="Layer_2" overflow="hidden"><defs><linearGradient x1="0.54" y1="24.48" x2="135.73" y2="24.48" gradientUnits="userSpaceOnUse" id="linear-gradient"><stop offset="0" stop-color="#08E9EB"/><stop offset="0.34" stop-color="#FF5DF2"/><stop offset="0.72" stop-color="#3895FF"/><stop offset="0.94" stop-color="#7A62FF"/></linearGradient></defs><g id="Layer_1"><path d="M90.31 3.86 90.31 44.29C90.31 46.42 88.59 48.14 86.46 48.14 84.33 48.14 82.61 46.42 82.61 44.29L82.61 3.86C82.61 1.73 84.33 0.01 86.46 0.01 88.59 0.01 90.31 1.73 90.31 3.86ZM4 37.78C6.21 37.78 8 35.99 8 33.78 8 31.57 6.21 29.78 4 29.78 1.79 29.78 0 31.57 0 33.78 0 35.99 1.79 37.78 4 37.78ZM27.7 3.06C24.06 1.02 19.87 0 15.15 0L4.37 0C2.03 0 0.14 1.84 0.02 4.14L0.02 28.19C1.14 27.39 2.51 26.91 4 26.91 5.49 26.91 6.87 27.39 8 28.2L8 7.43 15.15 7.43C17.4 7.43 19.5 7.85 21.48 8.7 23.45 9.55 25.17 10.73 26.64 12.24 28.11 13.75 29.25 15.52 30.08 17.53 30.9 19.55 31.32 21.72 31.32 24.06 31.32 26.4 30.91 28.58 30.08 30.59 29.26 32.61 28.11 34.37 26.64 35.88 25.17 37.39 23.45 38.57 21.48 39.42 19.51 40.27 17.4 40.69 15.15 40.69L8 40.69C8 40.69 3.75 40.69 3.72 40.69 1.66 40.69 -4.44089e-16 42.36 -4.44089e-16 44.41 -4.44089e-16 46.46 1.67 48.13 3.72 48.13L15.15 48.13C19.87 48.13 24.05 47.08 27.7 45.02 31.34 42.96 34.21 40.12 36.29 36.49 38.38 32.87 39.42 28.72 39.42 24.04 39.42 19.36 38.38 15.15 36.29 11.53 34.2 7.91 31.34 5.08 27.7 3.04ZM78.35 33.11 51.29 33.11C51.42 34.78 51.86 36.26 52.67 37.53 53.63 39.04 54.89 40.2 56.47 41 58.05 41.81 59.79 42.21 61.71 42.21 63.91 42.21 65.72 41.86 67.16 40.94 67.88 40.48 68.24 40.18 68.93 39.59 68.93 39.59 68.96 39.59 68.97 39.58 69.61 39.07 70.43 38.75 71.34 38.75 73.37 38.75 75.02 40.3 75.02 42.21 75.02 43.23 74.54 44.14 73.8 44.77 73.8 44.77 73.8 44.77 73.8 44.77 72.25 46.12 70.4 47.15 68.28 47.87 66.15 48.59 63.72 48.95 61 48.95 57.51 48.95 54.41 48.2 51.71 46.69 49.01 45.18 46.88 43.1 45.33 40.45 43.78 37.8 43 34.74 43 31.27 43 27.8 43.79 24.75 45.37 22.09 46.95 19.44 49.11 17.36 51.86 15.85 54.61 14.34 57.75 13.59 61.29 13.59 64.49 13.59 67.39 14.37 69.97 15.92 72.55 17.47 74.6 19.71 76.1 22.63 77.61 25.55 78.36 29.04 78.36 33.09ZM69.68 27.3C69.55 25.88 69.15 24.67 68.45 23.69 67.59 22.5 66.5 21.6 65.19 20.99 63.87 20.38 62.5 20.08 61.07 20.08 59.64 20.08 58.2 20.38 56.77 20.99 55.34 21.6 54.14 22.5 53.18 23.69 52.39 24.67 51.95 25.88 51.81 27.3L69.69 27.3ZM131.6 17.27 131.6 44.26C131.6 46.36 129.9 48.07 127.79 48.07 125.68 48.07 124.02 46.39 123.99 44.31 120.86 47.14 116.73 48.87 112.18 48.87 102.43 48.87 94.53 40.97 94.53 31.22 94.53 21.47 102.43 13.57 112.18 13.57 116.21 13.57 119.88 14.91 122.85 17.18 124.04 18.2 125.59 18.8 127.28 18.8 128.97 18.8 130.42 18.22 131.6 17.26ZM123.09 31.23C123.09 25.2 118.2 20.31 112.17 20.31 106.14 20.31 101.25 25.2 101.25 31.23 101.25 37.26 106.14 42.15 112.17 42.15 118.2 42.15 123.09 37.26 123.09 31.23ZM127.28 15.93C129.46 15.93 131.24 14.16 131.24 11.97 131.24 9.78 129.47 8.01 127.28 8.01 125.09 8.01 123.32 9.78 123.32 11.97 123.32 14.16 125.09 15.93 127.28 15.93ZM134.18 48.96 134.18 46.68 133.35 46.68 133.35 46.2 135.53 46.2 135.53 46.68 134.7 46.68 134.7 48.96 134.18 48.96ZM137.27 48.3 136.41 47.05 136.41 48.97 135.89 48.97 135.89 46.21 136.46 46.21 137.28 47.41 138.09 46.21 138.65 46.21 138.65 48.97 138.13 48.97 138.13 47.04 137.27 48.3Z" fill="url(#linear-gradient)"/></g></svg>