<svg width="121.84" height="31.08" viewBox="0 0 121.84 31.08" xmlns="http://www.w3.org/2000/svg" xmlns:xlink="http://www.w3.org/1999/xlink" overflow="visible"><defs></defs><g><g><path d="M42.07 25.92C41.16 26.51 40.01 26.8 38.61 26.8 37.4 26.8 36.29 26.54 35.29 26.03 34.29 25.52 33.48 24.78 32.88 23.82 32.37 23.01 32.09 22.07 32.01 21.01L49.18 21.01C49.18 18.44 48.7 16.23 47.75 14.37 46.79 12.51 45.5 11.09 43.86 10.11 42.22 9.12 40.38 8.63 38.35 8.63 36.1 8.63 34.11 9.11 32.36 10.06 30.61 11.02 29.24 12.34 28.24 14.02 27.24 15.71 26.74 17.65 26.74 19.84 26.74 22.04 27.23 23.98 28.22 25.66 29.21 27.35 30.56 28.67 32.27 29.62 33.98 30.58 35.95 31.05 38.17 31.05 39.9 31.05 41.44 30.82 42.79 30.36 44.14 29.9 45.31 29.25 46.3 28.39 47.29 27.53 48.1 26.53 48.74 25.39L44.23 23.59C43.69 24.57 42.98 25.33 42.07 25.92ZM33.19 15.04C33.8 14.28 34.56 13.71 35.47 13.33 36.38 12.94 37.29 12.75 38.2 12.75 39.11 12.75 39.98 12.94 40.82 13.33 41.65 13.72 42.34 14.29 42.89 15.04 43.34 15.66 43.59 16.43 43.67 17.33L32.32 17.33C32.41 16.43 32.69 15.66 33.19 15.04Z" fill="#1742F5"/><path d="M51.03 30.55 51.03 0.01 55.92 0.01 55.92 30.56 51.03 30.56Z" fill="#1742F5"/><path d="M72.08 25.75C71.64 26.07 71.25 26.29 70.9 26.4 70.55 26.52 70.23 26.57 69.94 26.57 69.01 26.57 68.3 26.31 67.82 25.78 67.34 25.26 67.1 24.49 67.1 23.47L67.1 12.92 73 12.92 73 8.73 67.11 8.73 67.11 1.93 62.27 1.93 62.27 8.74 58.65 8.74 58.65 12.93 62.27 12.93 62.27 24.4C62.27 26.55 62.87 28.2 64.08 29.35 65.29 30.5 67.04 31.07 69.34 31.07 70.1 31.07 70.85 30.93 71.61 30.66 72.37 30.38 73.12 29.98 73.88 29.46L72.08 25.75Z" fill="#1742F5"/><path d="M89.73 25.92C88.82 26.51 87.67 26.8 86.27 26.8 85.06 26.8 83.95 26.54 82.95 26.03 81.95 25.52 81.14 24.78 80.54 23.82 80.03 23.01 79.75 22.07 79.67 21.01L96.84 21.01C96.84 18.44 96.36 16.23 95.41 14.37 94.45 12.51 93.16 11.09 91.52 10.11 89.88 9.12 88.04 8.63 86.01 8.63 83.76 8.63 81.77 9.11 80.02 10.06 78.27 11.02 76.9 12.34 75.9 14.02 74.9 15.71 74.4 17.65 74.4 19.84 74.4 22.04 74.89 23.98 75.88 25.66 76.87 27.35 78.22 28.67 79.93 29.62 81.64 30.58 83.61 31.05 85.83 31.05 87.56 31.05 89.1 30.82 90.45 30.36 91.8 29.9 92.97 29.25 93.96 28.39 94.95 27.53 95.76 26.53 96.4 25.39L91.89 23.59C91.35 24.57 90.64 25.33 89.73 25.92ZM80.85 15.04C81.46 14.28 82.22 13.71 83.13 13.33 84.04 12.94 84.95 12.75 85.86 12.75 86.77 12.75 87.64 12.94 88.48 13.33 89.31 13.72 90 14.29 90.55 15.04 91 15.66 91.25 16.43 91.33 17.33L79.98 17.33C80.07 16.43 80.35 15.66 80.85 15.04Z" fill="#1742F5"/><path d="M112.79 30.55 118.59 30.55 109.64 17.77 117.85 8.73 111.96 8.73 103.8 17.62 103.8 0.01 98.91 0.01 98.91 30.55 103.8 30.55 103.8 24.2 106.47 21.26Z" fill="#1742F5"/><g><circle cx="2.54" cy="21.44" r="2.54" fill="#1742F5"/><path d="M23.03 7.33C21.71 5.03 19.89 3.24 17.57 1.94 15.27 0.65 12.61 0 9.62 0L2.77 0C1.29 0 0.09 1.17 0.01 2.63L0.01 17.89C0.72 17.38 1.59 17.08 2.53 17.08 3.48 17.08 4.35 17.39 5.07 17.9L5.07 4.71 9.61 4.71C11.04 4.71 12.37 4.98 13.62 5.52 14.87 6.06 15.96 6.81 16.89 7.77 17.82 8.73 18.55 9.85 19.07 11.13 19.59 12.41 19.86 13.79 19.86 15.28 19.86 16.76 19.6 18.15 19.07 19.43 18.55 20.71 17.82 21.83 16.89 22.79 15.96 23.75 14.87 24.5 13.62 25.04 12.37 25.58 11.03 25.85 9.61 25.85L5.08 25.85 2.4 25.85C2.39 25.85 2.37 25.85 2.36 25.85 1.06 25.83 0 26.89 0 28.19 0 29.5 1.06 30.55 2.36 30.55 2.39 30.55 2.43 30.54 2.46 30.54L9.61 30.54C12.61 30.54 15.26 29.89 17.57 28.58 19.88 27.27 21.7 25.47 23.03 23.17 24.35 20.87 25.02 18.24 25.02 15.27 25.02 12.28 24.36 9.63 23.03 7.33Z" fill="#1742F5"/></g><g><path d="M120.59 30.78C120.42 30.78 120.26 30.75 120.11 30.68 119.96 30.62 119.83 30.53 119.71 30.41 119.6 30.3 119.51 30.16 119.44 30.01 119.38 29.86 119.34 29.7 119.34 29.53 119.34 29.36 119.37 29.19 119.44 29.04 119.5 28.89 119.59 28.76 119.71 28.64 119.82 28.53 119.96 28.44 120.11 28.37 120.26 28.3 120.42 28.27 120.59 28.27 120.76 28.27 120.93 28.3 121.08 28.37 121.23 28.44 121.36 28.52 121.48 28.64 121.6 28.76 121.68 28.88 121.75 29.04 121.82 29.19 121.85 29.35 121.85 29.53 121.85 29.7 121.82 29.86 121.75 30.01 121.68 30.16 121.6 30.29 121.48 30.41 121.36 30.53 121.24 30.61 121.08 30.68 120.92 30.75 120.77 30.78 120.59 30.78ZM120.59 30.51C120.78 30.51 120.95 30.47 121.1 30.39 121.24 30.31 121.36 30.19 121.44 30.04 121.52 29.89 121.56 29.72 121.56 29.53 121.56 29.33 121.52 29.16 121.44 29.02 121.36 28.87 121.24 28.76 121.1 28.68 120.96 28.6 120.79 28.56 120.59 28.56 120.4 28.56 120.23 28.6 120.09 28.68 119.95 28.76 119.83 28.88 119.75 29.02 119.67 29.17 119.63 29.34 119.63 29.53 119.63 29.72 119.67 29.89 119.75 30.04 119.83 30.19 119.95 30.3 120.09 30.39 120.24 30.47 120.4 30.51 120.59 30.51ZM120.13 30.18 120.13 28.84 120.62 28.84C120.76 28.84 120.87 28.88 120.96 28.96 121.05 29.04 121.09 29.14 121.09 29.27 121.09 29.36 121.07 29.43 121.02 29.5 120.97 29.57 120.91 29.62 120.83 29.66L121.14 30.18 120.85 30.18 120.58 29.7 120.37 29.7 120.37 30.18 120.13 30.18ZM120.38 29.47 120.62 29.47C120.68 29.47 120.73 29.45 120.77 29.42 120.81 29.39 120.83 29.34 120.83 29.28 120.83 29.22 120.81 29.17 120.77 29.14 120.73 29.1 120.67 29.09 120.61 29.09L120.38 29.09 120.38 29.47Z" fill="#1742F5"/></g></g></g></svg>