<?xml version="1.0" encoding="utf-8"?>
<!-- Generator: Adobe Illustrator 23.0.6, SVG Export Plug-In . SVG Version: 6.00 Build 0)  -->
<svg version="1.1" id="Layer_1" xmlns="http://www.w3.org/2000/svg" xmlns:xlink="http://www.w3.org/1999/xlink" x="0px" y="0px"
	 viewBox="199 346 198 150" style="enable-background:new 0 0 595.28 841.89;" xml:space="preserve">
<style type="text/css">
	.st0{fill-rule:evenodd;clip-rule:evenodd;fill:url(#SVGID_1_);}
	.st1{fill-rule:evenodd;clip-rule:evenodd;fill:url(#SVGID_2_);}
	.st2{fill-rule:evenodd;clip-rule:evenodd;fill:url(#SVGID_3_);}
	.st3{fill-rule:evenodd;clip-rule:evenodd;fill:url(#SVGID_4_);}
	.st4{fill-rule:evenodd;clip-rule:evenodd;fill:url(#SVGID_5_);}
	.st5{fill-rule:evenodd;clip-rule:evenodd;fill:url(#SVGID_6_);}
	.st6{fill-rule:evenodd;clip-rule:evenodd;fill:url(#SVGID_7_);}
	.st7{fill-rule:evenodd;clip-rule:evenodd;fill:url(#SVGID_8_);}
	.st8{fill-rule:evenodd;clip-rule:evenodd;fill:url(#SVGID_9_);}
	.st9{fill-rule:evenodd;clip-rule:evenodd;fill:url(#SVGID_10_);}
	.st10{fill-rule:evenodd;clip-rule:evenodd;fill:url(#SVGID_11_);}
	.st11{fill-rule:evenodd;clip-rule:evenodd;fill:#120E3A;}
	.st12{fill-rule:evenodd;clip-rule:evenodd;fill:url(#SVGID_12_);}
</style>
<g>
	<g>
		<linearGradient id="SVGID_1_" gradientUnits="userSpaceOnUse" x1="203.2897" y1="487.0108" x2="203.2897" y2="494.972">
			<stop  offset="0" style="stop-color:#F39219"/>
			<stop  offset="0.1674" style="stop-color:#EF8433"/>
			<stop  offset="0.5197" style="stop-color:#E75E55"/>
			<stop  offset="1" style="stop-color:#DB0064"/>
		</linearGradient>
		<path class="st0" d="M205.09,492.09l1.46,0.47c-0.22,0.87-0.6,1.51-1.12,1.93c-0.52,0.42-1.19,0.63-1.99,0.63
			c-1,0-1.81-0.36-2.46-1.07c-0.64-0.71-0.96-1.69-0.96-2.93c0-1.31,0.32-2.32,0.97-3.05c0.64-0.72,1.49-1.09,2.54-1.09
			c0.92,0,1.66,0.28,2.23,0.85c0.34,0.34,0.6,0.82,0.77,1.45l-1.5,0.37c-0.09-0.41-0.27-0.73-0.55-0.96
			c-0.28-0.24-0.62-0.35-1.03-0.35c-0.56,0-1.01,0.21-1.35,0.63c-0.35,0.42-0.52,1.09-0.52,2.03c0,0.99,0.17,1.7,0.51,2.12
			c0.34,0.42,0.78,0.63,1.33,0.63c0.4,0,0.75-0.13,1.04-0.4C204.76,493.08,204.96,492.66,205.09,492.09z"/>
		<linearGradient id="SVGID_2_" gradientUnits="userSpaceOnUse" x1="222.8075" y1="487.0108" x2="222.8075" y2="494.9723">
			<stop  offset="0" style="stop-color:#F39219"/>
			<stop  offset="0.1674" style="stop-color:#EF8433"/>
			<stop  offset="0.5197" style="stop-color:#E75E55"/>
			<stop  offset="1" style="stop-color:#DB0064"/>
		</linearGradient>
		<path class="st1" d="M219.17,491.1c0-0.8,0.11-1.47,0.34-2.02c0.17-0.4,0.4-0.76,0.7-1.08c0.29-0.32,0.62-0.55,0.97-0.71
			c0.47-0.21,1.01-0.31,1.62-0.31c1.11,0,1.99,0.36,2.65,1.08c0.66,0.72,0.99,1.72,0.99,3c0,1.27-0.33,2.27-0.99,2.98
			c-0.66,0.72-1.54,1.08-2.64,1.08c-1.11,0-2-0.36-2.66-1.07C219.5,493.34,219.17,492.36,219.17,491.1L219.17,491.1z M220.73,491.05
			L220.73,491.05c0,0.89,0.2,1.57,0.59,2.03c0.39,0.46,0.89,0.69,1.5,0.69c0.61,0,1.1-0.23,1.49-0.68c0.39-0.46,0.58-1.14,0.58-2.05
			c0-0.9-0.19-1.57-0.57-2.02c-0.38-0.44-0.88-0.67-1.5-0.67c-0.62,0-1.13,0.23-1.51,0.67
			C220.92,489.47,220.73,490.15,220.73,491.05z"/>
		<linearGradient id="SVGID_3_" gradientUnits="userSpaceOnUse" x1="242.2325" y1="487.0108" x2="242.2325" y2="494.9718">
			<stop  offset="0" style="stop-color:#F39219"/>
			<stop  offset="0.1674" style="stop-color:#EF8433"/>
			<stop  offset="0.5197" style="stop-color:#E75E55"/>
			<stop  offset="1" style="stop-color:#DB0064"/>
		</linearGradient>
		<polygon class="st2" points="239.26,494.98 239.26,487.13 240.72,487.13 243.81,492.39 243.81,487.13 245.21,487.13 
			245.21,494.98 243.69,494.98 240.66,489.82 240.66,494.98 		"/>
		<linearGradient id="SVGID_4_" gradientUnits="userSpaceOnUse" x1="261.0909" y1="487.0108" x2="261.0909" y2="494.9723">
			<stop  offset="0" style="stop-color:#F39219"/>
			<stop  offset="0.1674" style="stop-color:#EF8433"/>
			<stop  offset="0.5197" style="stop-color:#E75E55"/>
			<stop  offset="1" style="stop-color:#DB0064"/>
		</linearGradient>
		<path class="st3" d="M258.05,492.44l1.48-0.15c0.09,0.52,0.27,0.9,0.54,1.14c0.27,0.24,0.63,0.36,1.09,0.36
			c0.49,0,0.85-0.11,1.1-0.32c0.25-0.22,0.37-0.47,0.37-0.76c0-0.19-0.05-0.34-0.15-0.48c-0.1-0.13-0.28-0.24-0.54-0.34
			c-0.18-0.07-0.58-0.18-1.2-0.34c-0.81-0.21-1.37-0.47-1.7-0.78c-0.46-0.43-0.69-0.96-0.69-1.59c0-0.4,0.11-0.78,0.32-1.13
			c0.22-0.35,0.53-0.61,0.93-0.8c0.41-0.18,0.9-0.27,1.47-0.27c0.94,0,1.64,0.22,2.12,0.65c0.47,0.44,0.72,1.02,0.75,1.75
			l-1.52,0.05c-0.07-0.41-0.2-0.7-0.41-0.87c-0.21-0.18-0.53-0.27-0.95-0.27c-0.44,0-0.78,0.1-1.02,0.29
			c-0.16,0.12-0.24,0.29-0.24,0.49c0,0.19,0.08,0.35,0.22,0.48c0.19,0.17,0.65,0.35,1.39,0.53c0.73,0.18,1.28,0.37,1.63,0.56
			c0.35,0.2,0.63,0.46,0.83,0.8c0.2,0.34,0.3,0.75,0.3,1.25c0,0.45-0.12,0.87-0.36,1.27c-0.24,0.39-0.58,0.69-1.01,0.88
			c-0.44,0.19-0.98,0.29-1.63,0.29c-0.95,0-1.67-0.23-2.18-0.69C258.45,493.98,258.15,493.31,258.05,492.44z"/>
		<linearGradient id="SVGID_5_" gradientUnits="userSpaceOnUse" x1="280.0313" y1="487.0111" x2="280.0313" y2="494.9726">
			<stop  offset="0" style="stop-color:#F39219"/>
			<stop  offset="0.1674" style="stop-color:#EF8433"/>
			<stop  offset="0.5197" style="stop-color:#E75E55"/>
			<stop  offset="1" style="stop-color:#DB0064"/>
		</linearGradient>
		<path class="st4" d="M277.05,487.13h1.52v4.26c0,0.68,0.02,1.11,0.06,1.31c0.06,0.32,0.22,0.58,0.46,0.78
			c0.24,0.2,0.57,0.29,0.99,0.29c0.42,0,0.74-0.09,0.96-0.28c0.22-0.18,0.35-0.41,0.39-0.68c0.04-0.27,0.07-0.71,0.07-1.33v-4.35
			h1.52v4.13c0,0.94-0.04,1.61-0.12,2c-0.08,0.39-0.23,0.72-0.45,0.99c-0.22,0.27-0.51,0.48-0.88,0.64
			c-0.37,0.16-0.85,0.24-1.44,0.24c-0.71,0-1.25-0.09-1.62-0.26c-0.37-0.17-0.66-0.4-0.87-0.68c-0.21-0.28-0.35-0.57-0.42-0.87
			c-0.1-0.45-0.15-1.12-0.15-2V487.13z"/>
		<linearGradient id="SVGID_6_" gradientUnits="userSpaceOnUse" x1="298.9204" y1="487.0103" x2="298.9204" y2="494.9719">
			<stop  offset="0" style="stop-color:#F39219"/>
			<stop  offset="0.1674" style="stop-color:#EF8433"/>
			<stop  offset="0.5197" style="stop-color:#E75E55"/>
			<stop  offset="1" style="stop-color:#DB0064"/>
		</linearGradient>
		<polygon class="st5" points="296.28,494.98 296.28,487.19 297.8,487.19 297.8,493.66 301.56,493.66 301.56,494.98 		"/>
		<linearGradient id="SVGID_7_" gradientUnits="userSpaceOnUse" x1="316.5146" y1="487.0108" x2="316.5145" y2="494.9718">
			<stop  offset="0" style="stop-color:#F39219"/>
			<stop  offset="0.1674" style="stop-color:#EF8433"/>
			<stop  offset="0.5197" style="stop-color:#E75E55"/>
			<stop  offset="1" style="stop-color:#DB0064"/>
		</linearGradient>
		<polygon class="st6" points="315.76,494.98 315.76,488.46 313.54,488.46 313.54,487.13 319.49,487.13 319.49,488.46 
			317.28,488.46 317.28,494.98 		"/>
		<linearGradient id="SVGID_8_" gradientUnits="userSpaceOnUse" x1="334.703" y1="487.0108" x2="334.703" y2="494.9718">
			<stop  offset="0" style="stop-color:#F39219"/>
			<stop  offset="0.1674" style="stop-color:#EF8433"/>
			<stop  offset="0.5197" style="stop-color:#E75E55"/>
			<stop  offset="1" style="stop-color:#DB0064"/>
		</linearGradient>
		<path class="st7" d="M338.46,494.98h-1.63l-0.65-1.79h-3.01l-0.62,1.79h-1.6l2.91-7.86h1.6L338.46,494.98L338.46,494.98z
			 M335.69,491.87L335.69,491.87l-1.04-2.91l-1.01,2.91H335.69z"/>
		<linearGradient id="SVGID_9_" gradientUnits="userSpaceOnUse" x1="353.4862" y1="487.0108" x2="353.4862" y2="494.9718">
			<stop  offset="0" style="stop-color:#F39219"/>
			<stop  offset="0.1674" style="stop-color:#EF8433"/>
			<stop  offset="0.5197" style="stop-color:#E75E55"/>
			<stop  offset="1" style="stop-color:#DB0064"/>
		</linearGradient>
		<polygon class="st8" points="350.51,494.98 350.51,487.13 351.98,487.13 355.06,492.39 355.06,487.13 356.46,487.13 
			356.46,494.98 354.95,494.98 351.91,489.82 351.91,494.98 		"/>
		<linearGradient id="SVGID_10_" gradientUnits="userSpaceOnUse" x1="391.4223" y1="487.0108" x2="391.4223" y2="494.9718">
			<stop  offset="0" style="stop-color:#F39219"/>
			<stop  offset="0.1674" style="stop-color:#EF8433"/>
			<stop  offset="0.5197" style="stop-color:#E75E55"/>
			<stop  offset="1" style="stop-color:#DB0064"/>
		</linearGradient>
		<polygon class="st9" points="390.66,494.98 390.66,491.68 387.92,487.13 389.69,487.13 391.46,490.24 393.19,487.13 
			394.93,487.13 392.18,491.69 392.18,494.98 		"/>
		<linearGradient id="SVGID_11_" gradientUnits="userSpaceOnUse" x1="372.6898" y1="487.0108" x2="372.6898" y2="494.972">
			<stop  offset="0" style="stop-color:#F39219"/>
			<stop  offset="0.1674" style="stop-color:#EF8433"/>
			<stop  offset="0.5197" style="stop-color:#E75E55"/>
			<stop  offset="1" style="stop-color:#DB0064"/>
		</linearGradient>
		<path class="st10" d="M374.49,492.09l1.47,0.47c-0.23,0.87-0.6,1.51-1.12,1.93c-0.52,0.42-1.19,0.63-1.99,0.63
			c-1,0-1.81-0.36-2.46-1.07c-0.64-0.71-0.96-1.69-0.96-2.93c0-1.31,0.32-2.32,0.97-3.05c0.64-0.72,1.49-1.09,2.54-1.09
			c0.92,0,1.66,0.28,2.23,0.85c0.34,0.34,0.6,0.82,0.77,1.45l-1.5,0.37c-0.09-0.41-0.27-0.73-0.55-0.96
			c-0.28-0.24-0.62-0.35-1.02-0.35c-0.56,0-1.01,0.21-1.35,0.63c-0.35,0.42-0.52,1.09-0.52,2.03c0,0.99,0.17,1.7,0.51,2.12
			c0.34,0.42,0.79,0.63,1.33,0.63c0.4,0,0.75-0.13,1.04-0.4C374.15,493.08,374.36,492.66,374.49,492.09z"/>
	</g>
	<g>
		<path class="st11" d="M347.45,446.45h-2.96v34.12c0,1.57,1.33,2.85,2.97,2.85h2.96v-34.12
			C350.42,447.74,349.08,446.45,347.45,446.45L347.45,446.45z"/>
		<path class="st11" d="M318.78,481.16c0,1.57,1.33,2.85,2.97,2.85h2.96v-24.96c0-1.57-1.32-2.85-2.96-2.85h-2.97V481.16z"/>
		<path class="st11" d="M307.1,451.98h32.3v-2.67c0-1.6-1.35-2.85-2.97-2.85h-32.3v2.66C304.13,450.7,305.46,451.98,307.1,451.98z"
			/>
		<path class="st11" d="M286.12,451.81c1.06,0.2,1.97,0.5,2.7,0.81c0.11,0.07,0.22,0.13,0.33,0.18c4.67,2.23,7.58,6.66,7.58,11.59
			v17.32c0,0.95,0.8,1.72,1.77,1.72h3.96c0-2.09,0.01-17.6,0.01-19.04c0-6.84-3.92-12.88-9.86-16.09l0,0l-0.04-0.02
			c-1.18-0.64-2.45-1.16-3.78-1.55c-1.4-0.41-2.21-0.56-3.72-0.72v3.47v0v0v0.06C285.06,449.87,285.15,451.17,286.12,451.81z"/>
		<path class="st11" d="M277.12,446.73c-0.21,0.06-0.42,0.13-0.62,0.2l-0.12,0.04l-0.03,0.01c-1.88,0.62-2.99,1.28-2.99,1.28l0,0
			c-6.14,3.25-10,9.44-9.92,16.38v18.8h3.96c0.97,0,1.77-0.78,1.77-1.72v-17.32c0-4.8,2.76-9.14,7.24-11.42
			c1.06-0.41,2.06-0.72,3.01-0.94c1.19-0.31,1.42-2.45,1.42-2.45v-3.56C279.32,446.17,278.54,446.31,277.12,446.73z"/>
		<path class="st11" d="M253.88,446.45h-2.96v34.12c0,1.57,1.33,2.85,2.97,2.85h2.96v-34.12
			C256.84,447.74,255.51,446.45,253.88,446.45L253.88,446.45z"/>
		<path class="st11" d="M219.61,474.36c0.61-1.13,0.6-2.48-0.03-3.61c-0.45-0.81-1.28-2.44-11.92-22.19c-0.7-1.3-2.08-2.1-3.61-2.1
			h-4.11l17.34,32.23L219.61,474.36z"/>
		<path class="st11" d="M226.63,482.1c-0.04,0,19.21-35.63,19.22-35.65h-4.11c-1.53,0-2.91,0.8-3.61,2.1
			c-3.87,7.18-14.73,27.33-18.8,34.87h5.04C225.31,483.43,226.18,482.93,226.63,482.1z"/>
		<path class="st11" d="M375.58,483.37c16.84,0-18.1,0,19.28-0.01v-2.7c0-1.56-1.3-2.82-2.9-2.82h-16.4
			c-7.52,0-13.63-5.82-13.63-12.96c0-7.15,6.11-12.96,13.63-12.96c7.51,0,13.63,5.82,13.63,12.96c0,1.56,1.3,2.82,2.89,2.82h2.59
			l0.11-1.08c1.12-11-8.07-20.24-19.21-20.24c-10.64,0-19.3,8.3-19.3,18.5C356.26,475.07,364.93,483.37,375.58,483.37L375.58,483.37
			z"/>
		<path class="st11" d="M375.18,477.83c-7.33-0.2-13.24-5.93-13.24-12.96c0-7.15,6.12-12.96,13.63-12.96
			c7.51,0,13.63,5.82,13.63,12.96c0,3.38-1.37,6.46-3.6,8.77h6.96c1.48-2.61,2.31-5.6,2.31-8.77c0-10.2-8.66-18.5-19.3-18.5l0,0
			c-10.64,0-19.3,8.3-19.3,18.5c0,10.2,8.66,18.5,19.3,18.5c5.38,0,10.25-2.12,13.75-5.53h-6.7h-3.14h-3.85h-0.06L375.18,477.83
			L375.18,477.83L375.18,477.83z M375.56,477.84"/>
	</g>
</g>
<linearGradient id="SVGID_12_" gradientUnits="userSpaceOnUse" x1="297.4358" y1="346.9111" x2="297.4358" y2="436.0323">
	<stop  offset="0" style="stop-color:#F39219"/>
	<stop  offset="0.1674" style="stop-color:#EF8433"/>
	<stop  offset="0.5197" style="stop-color:#E75E55"/>
	<stop  offset="1" style="stop-color:#DB0064"/>
</linearGradient>
<path class="st12" d="M274.36,346.79h-14.73c-17.88,0.83-19.44,16.07-12.32,26.4l4.26,7.39c-0.31-1.73-0.45-3.49-0.45-5.29
	c0-4.3,0.85-8.44,2.79-12.29c1.91-3.79,4.54-7.02,7.83-9.69c3.62-2.94,7.8-5,12.23-6.41L274.36,346.79L274.36,346.79z
	 M261.38,397.62l15.04,26.12c4.6,7.98,8.18,14.1,17.89,14.02c1.52-0.16,7.63,0.49,15.42-12.24l10.64-18.1h-30.41
	c-5.4,0-10.75-0.75-15.86-2.55c-4.47-1.57-8.67-3.79-12.29-6.87C261.67,397.88,261.53,397.75,261.38,397.62L261.38,397.62z
	 M326.03,397.8h-36.06c-6.51,0-13.15-1.75-18.31-5.84c-2.46-1.95-4.43-3.58-5.81-6.4c-1.43-2.91-2.08-6.05-2.08-9.28
	c0-3.27,0.68-6.44,2.15-9.36c2.48-4.95,8.89-9.21,14.03-10.93c3.24-1.08,6.62-1.56,10.02-1.56h61.55L326.03,397.8z"/>
</svg>
