<svg viewBox="0 0 100 100" xmlns="http://www.w3.org/2000/svg" xmlns:xlink="http://www.w3.org/1999/xlink" id="Layer_1" xml:space="preserve" overflow="hidden"><g><path d="M66 70 34 70C32.3 70 31 68.7 31 67L31 35C31 33.3 32.3 32 34 32L66 32C67.7 32 69 33.3 69 35L69 67C69 68.7 67.7 70 66 70Z" stroke="#FFFFFF" stroke-width="3" stroke-linecap="round" stroke-linejoin="round" fill="none"/><path d="M39.8 58.3 45.6 43.7 51.5 58.3" stroke="#FFFFFF" stroke-width="3" stroke-linecap="round" stroke-linejoin="round" fill="none"/><line x1="41.5" y1="53.9" x2="49.7" y2="53.9" stroke="#FFFFFF" stroke-width="3" stroke-linecap="round" stroke-linejoin="round" fill="none"/><line x1="57.3" y1="43.7" x2="57.3" y2="58.3" stroke="#FFFFFF" stroke-width="3" stroke-linecap="round" stroke-linejoin="round" fill="none"/><path d="M33.9 83.2 39.8 83.2 39.8 70" stroke="#FFFFFF" stroke-width="3" stroke-linecap="round" stroke-linejoin="round" fill="none"/><path d="M66.1 83.2 60.3 83.2 60.3 70" stroke="#FFFFFF" stroke-width="3" stroke-linecap="round" stroke-linejoin="round" fill="none"/><circle cx="70.5" cy="83.2" r="4.4" stroke="#FFFFFF" stroke-width="3" stroke-linecap="round" stroke-linejoin="round" fill="none"/><circle cx="29.5" cy="83.2" r="4.4" stroke="#FFFFFF" stroke-width="3" stroke-linecap="round" stroke-linejoin="round" fill="none"/><circle cx="50" cy="86.1" r="4.4" stroke="#FFFFFF" stroke-width="3" stroke-linecap="round" stroke-linejoin="round" fill="none"/><line x1="50" y1="70" x2="50" y2="81.7" stroke="#FFFFFF" stroke-width="3" stroke-linecap="round" stroke-linejoin="round" fill="none"/><path d="M33.9 18.8 39.8 18.8 39.8 32" stroke="#FFFFFF" stroke-width="3" stroke-linecap="round" stroke-linejoin="round" fill="none"/><path d="M66.1 18.8 60.3 18.8 60.3 32" stroke="#FFFFFF" stroke-width="3" stroke-linecap="round" stroke-linejoin="round" fill="none"/><circle cx="70.5" cy="18.8" r="4.4" stroke="#FFFFFF" stroke-width="3" stroke-linecap="round" stroke-linejoin="round" fill="none"/><circle cx="29.5" cy="18.8" r="4.4" stroke="#FFFFFF" stroke-width="3" stroke-linecap="round" stroke-linejoin="round" fill="none"/><circle cx="50" cy="15.9" r="4.4" stroke="#FFFFFF" stroke-width="3" stroke-linecap="round" stroke-linejoin="round" fill="none"/><line x1="50" y1="32" x2="50" y2="20.3" stroke="#FFFFFF" stroke-width="3" stroke-linecap="round" stroke-linejoin="round" fill="none"/><path d="M17.8 34.9 17.8 40.7 31 40.7" stroke="#FFFFFF" stroke-width="3" stroke-linecap="round" stroke-linejoin="round" fill="none"/><path d="M17.8 67.1 17.8 61.2 31 61.2" stroke="#FFFFFF" stroke-width="3" stroke-linecap="round" stroke-linejoin="round" fill="none"/><circle cx="17.8" cy="71.5" r="4.4" stroke="#FFFFFF" stroke-width="3" stroke-linecap="round" stroke-linejoin="round" fill="none"/><circle cx="17.8" cy="30.5" r="4.4" stroke="#FFFFFF" stroke-width="3" stroke-linecap="round" stroke-linejoin="round" fill="none"/><circle cx="14.9" cy="51" r="4.4" stroke="#FFFFFF" stroke-width="3" stroke-linecap="round" stroke-linejoin="round" fill="none"/><line x1="31" y1="51" x2="19.3" y2="51" stroke="#FFFFFF" stroke-width="3" stroke-linecap="round" stroke-linejoin="round" fill="none"/><path d="M82.2 34.9 82.2 40.7 69 40.7" stroke="#FFFFFF" stroke-width="3" stroke-linecap="round" stroke-linejoin="round" fill="none"/><path d="M82.2 67.1 82.2 61.2 69 61.2" stroke="#FFFFFF" stroke-width="3" stroke-linecap="round" stroke-linejoin="round" fill="none"/><circle cx="82.2" cy="71.5" r="4.4" stroke="#FFFFFF" stroke-width="3" stroke-linecap="round" stroke-linejoin="round" fill="none"/><circle cx="82.2" cy="30.5" r="4.4" stroke="#FFFFFF" stroke-width="3" stroke-linecap="round" stroke-linejoin="round" fill="none"/><circle cx="85.1" cy="51" r="4.4" stroke="#FFFFFF" stroke-width="3" stroke-linecap="round" stroke-linejoin="round" fill="none"/><line x1="69" y1="51" x2="80.7" y2="51" stroke="#FFFFFF" stroke-width="3" stroke-linecap="round" stroke-linejoin="round" fill="none"/></g></svg>