<svg width="80.29" height="71.39" viewBox="0 0 80.29 71.39" xmlns="http://www.w3.org/2000/svg" xmlns:xlink="http://www.w3.org/1999/xlink" overflow="visible"><style>
.MsftOfcResponsive_Fill_1742f6 {
 fill:#1742F6; 
}
</style>
<defs></defs><path d="M58.63 61.96 38.63 61.96 38.63 13.21 41.65 13.21 41.65 57.38C41.65 58.17 42.29 58.82 43.08 58.82 43.88 58.82 44.52 58.17 44.52 57.38L44.52 4.65C44.52 2.09 42.55 0 40.14 0 37.72 0 35.75 2.09 35.75 4.65L35.75 61.96 21.57 61.96C18.97 61.96 16.86 64.08 16.86 66.68 16.86 69.27 18.97 71.39 21.57 71.39L58.63 71.39C61.23 71.39 63.34 69.27 63.34 66.68 63.34 64.08 61.23 61.96 58.63 61.96ZM38.63 4.65C38.63 3.69 39.32 2.88 40.14 2.88 40.95 2.88 41.65 3.69 41.65 4.65L41.65 10.33 38.63 10.33 38.63 4.65ZM58.63 68.39 21.57 68.39C20.63 68.39 19.86 67.62 19.86 66.68 19.86 65.73 20.63 64.97 21.57 64.97L58.63 64.97C59.57 64.97 60.34 65.73 60.34 66.68 60.34 67.62 59.57 68.39 58.63 68.39Z" class="MsftOfcResponsive_Fill_1742f6" stroke="none" stroke-width="1" stroke-linecap="butt" stroke-linejoin="miter" stroke-miterlimit="4" fill="#1742F6" fill-opacity="1"/><path d="M61.84 8.45C61.84 9.25 61.19 9.89 60.4 9.89L47.4 9.89C46.6 9.89 45.96 9.25 45.96 8.45 45.96 7.66 46.6 7.01 47.4 7.01L60.4 7.01C61.19 7.01 61.84 7.66 61.84 8.45Z" class="MsftOfcResponsive_Fill_1742f6" stroke="none" stroke-width="1" stroke-linecap="butt" stroke-linejoin="miter" stroke-miterlimit="4" fill="#1742F6" fill-opacity="1"/><path d="M34.31 8.45C34.31 9.25 33.67 9.89 32.88 9.89L19.88 9.89C19.08 9.89 18.44 9.25 18.44 8.45 18.44 7.66 19.08 7.01 19.88 7.01L32.88 7.01C33.67 7.01 34.31 7.66 34.31 8.45Z" class="MsftOfcResponsive_Fill_1742f6" stroke="none" stroke-width="1" stroke-linecap="butt" stroke-linejoin="miter" stroke-miterlimit="4" fill="#1742F6" fill-opacity="1"/><path d="M30.45 39.64C30.44 39.57 30.41 39.5 30.38 39.44 30.37 39.41 30.37 39.39 30.36 39.37L30.33 39.3 16.61 8.26C16.38 7.74 15.86 7.4 15.29 7.4 14.72 7.4 14.21 7.74 13.98 8.25L0.12 39.36C0.04 39.54 0 39.74 0 39.95 0 40.02 0 40.08 0.01 40.15 0.11 48.46 6.91 55.19 15.24 55.19 23.65 55.19 30.49 48.35 30.49 39.95 30.49 39.85 30.48 39.74 30.45 39.64ZM15.29 12.39 26.84 38.51 3.65 38.51 15.29 12.39ZM15.24 52.31C10.68 52.31 6.69 49.83 4.55 46.15L12.29 46.15C13.08 46.15 13.72 45.51 13.72 44.71 13.72 43.92 13.08 43.28 12.29 43.28L3.34 43.28C3.16 42.67 3.04 42.04 2.96 41.39L27.53 41.39C26.81 47.53 21.57 52.31 15.24 52.31Z" class="MsftOfcResponsive_Fill_1742f6" stroke="none" stroke-width="1" stroke-linecap="butt" stroke-linejoin="miter" stroke-miterlimit="4" fill="#1742F6" fill-opacity="1"/><path d="M20.8 44.71C20.8 45.51 20.15 46.15 19.36 46.15L16.54 46.15C15.74 46.15 15.1 45.51 15.1 44.71 15.1 43.92 15.74 43.28 16.54 43.28L19.36 43.28C20.15 43.28 20.8 43.92 20.8 44.71Z" class="MsftOfcResponsive_Fill_1742f6" stroke="none" stroke-width="1" stroke-linecap="butt" stroke-linejoin="miter" stroke-miterlimit="4" fill="#1742F6" fill-opacity="1"/><path d="M80.17 39.37 66.41 8.26C66.18 7.74 65.66 7.4 65.1 7.4L65.09 7.4C64.53 7.4 64.01 7.74 63.78 8.25L49.94 39.33C49.94 39.34 49.93 39.35 49.93 39.36 49.9 39.44 49.87 39.5 49.86 39.58 49.84 39.61 49.83 39.65 49.83 39.69 49.81 39.77 49.8 39.86 49.8 39.95 49.8 40.02 49.8 40.08 49.81 40.15 49.91 48.46 56.71 55.19 65.05 55.19 73.38 55.19 80.18 48.46 80.28 40.15 80.29 40.08 80.29 40.02 80.29 39.95 80.29 39.74 80.25 39.54 80.17 39.37ZM65.09 12.39 76.64 38.51 53.46 38.51 65.09 12.39ZM65.05 52.31C60.49 52.31 56.49 49.83 54.36 46.15L62.09 46.15C62.88 46.15 63.53 45.51 63.53 44.71 63.53 43.92 62.88 43.28 62.09 43.28L53.14 43.28C52.96 42.67 52.84 42.04 52.76 41.39L77.33 41.39C76.61 47.53 71.38 52.31 65.05 52.31Z" class="MsftOfcResponsive_Fill_1742f6" stroke="none" stroke-width="1" stroke-linecap="butt" stroke-linejoin="miter" stroke-miterlimit="4" fill="#1742F6" fill-opacity="1"/><path d="M70.6 44.71C70.6 45.51 69.96 46.15 69.16 46.15L66.34 46.15C65.55 46.15 64.9 45.51 64.9 44.71 64.9 43.92 65.55 43.28 66.34 43.28L69.16 43.28C69.96 43.28 70.6 43.92 70.6 44.71Z" class="MsftOfcResponsive_Fill_1742f6" stroke="none" stroke-width="1" stroke-linecap="butt" stroke-linejoin="miter" stroke-miterlimit="4" fill="#1742F6" fill-opacity="1"/></svg>