<svg width="66.14" height="66.15" viewBox="0 0 66.14 66.15" xmlns="http://www.w3.org/2000/svg" xmlns:xlink="http://www.w3.org/1999/xlink" overflow="visible"><style>
.MsftOfcResponsive_Fill_1742f6 {
 fill:#1742F6; 
}
</style>
<defs></defs><path d="M59.15 15.09C56.39 15.09 55.38 16.53 55.02 17.39 54.94 17.57 54.9 17.77 54.9 17.97L54.9 21.96 43.68 21.96C42.85 21.96 42.18 22.63 42.18 23.46 42.18 24.29 42.85 24.96 43.68 24.96L54.9 24.96 54.9 55.03C54.9 55.71 55.36 56.3 56.01 56.48 56.67 56.66 57.36 56.38 57.7 55.79 57.96 55.35 58.61 55.16 59.15 55.16 61.35 55.16 63.14 56.95 63.14 59.15 63.14 61.35 61.35 63.14 59.15 63.14L6.99 63.14C4.79 63.14 3 61.35 3 59.15 3 56.95 4.79 55.16 6.99 55.16 7.52 55.16 8.18 55.35 8.44 55.79 8.78 56.37 9.47 56.66 10.13 56.48 10.78 56.3 11.23 55.71 11.23 55.03L11.23 24.97 22.46 24.97C23.29 24.97 23.96 24.3 23.96 23.47 23.96 22.64 23.29 21.97 22.46 21.97L11.23 21.97 11.23 17.98C11.23 17.78 11.19 17.58 11.12 17.4 10.76 16.54 9.75 15.1 6.99 15.1 3.13 15.1 8.88178e-16 18.24 8.88178e-16 22.1L8.88178e-16 59.16C8.88178e-16 63.01 3.13 66.15 6.99 66.15L59.15 66.15C63.01 66.15 66.14 63.01 66.14 59.16L66.14 22.09C66.14 18.24 63.01 15.09 59.15 15.09ZM3 22.09C3 19.89 4.79 18.1 6.99 18.1 7.29 18.1 7.94 18.13 8.23 18.39L8.23 52.31C7.8 52.2 7.38 52.16 6.99 52.16 5.51 52.16 4.13 52.62 3 53.41L3 22.09ZM63.14 53.42C62.01 52.63 60.63 52.17 59.15 52.17 58.76 52.17 58.34 52.21 57.91 52.32L57.91 18.4C58.2 18.14 58.85 18.11 59.15 18.11 61.35 18.11 63.14 19.9 63.14 22.1L63.14 53.42Z" class="MsftOfcResponsive_Fill_1742f6" stroke="none" stroke-width="1" stroke-linecap="butt" stroke-linejoin="miter" stroke-miterlimit="4" fill="#1742F6" fill-opacity="1"/><path d="M49.58 54.53 43.55 37.95C45.01 36.91 46.45 35.63 47.89 34.1 48.46 33.5 48.43 32.55 47.82 31.98 47.22 31.41 46.27 31.45 45.7 32.05 44.62 33.2 43.55 34.18 42.48 35.01L38.95 25.29C40.48 23.77 41.43 21.67 41.43 19.35 41.43 15.81 39.22 12.78 36.11 11.57L36.88 10.8C37.16 10.52 37.31 10.14 37.31 9.74L37.31 4.25C37.31 3.85 37.16 3.47 36.88 3.19L34.13 0.44C33.54-0.14 32.59-0.14 32.01 0.44L29.26 3.19C28.98 3.47 28.82 3.85 28.82 4.25L28.82 9.74C28.82 10.14 28.98 10.52 29.26 10.8L30.03 11.57C26.91 12.78 24.7 15.81 24.7 19.35 24.7 21.66 25.64 23.74 27.16 25.26L23.29 34.71C22.34 33.95 21.39 33.06 20.44 32.05 19.87 31.45 18.92 31.42 18.31 31.98 17.71 32.55 17.68 33.5 18.25 34.1 19.53 35.46 20.81 36.63 22.11 37.6L15.21 54.47C14.89 55.24 15.26 56.12 16.03 56.43 16.21 56.51 16.41 56.54 16.6 56.54 17.19 56.54 17.75 56.19 17.99 55.61L24.67 39.27C26.88 40.49 29.15 41.18 31.57 41.37L31.57 46.8C31.57 47.63 32.24 48.31 33.07 48.31 33.9 48.31 34.57 47.63 34.57 46.8L34.57 41.37C36.79 41.19 38.89 40.59 40.94 39.55L46.76 55.55C46.98 56.16 47.56 56.54 48.17 56.54 48.34 56.54 48.51 56.51 48.68 56.45 49.46 56.17 49.86 55.3 49.58 54.53ZM31.82 4.86 33.07 3.62 34.31 4.86 34.31 9.11 33.07 10.35 31.82 9.11 31.82 4.86ZM33.07 13.99C36.03 13.99 38.43 16.39 38.43 19.35 38.43 22.31 36.03 24.71 33.07 24.71 30.11 24.71 27.71 22.31 27.71 19.35 27.71 16.39 30.11 13.99 33.07 13.99ZM34.57 38.35 34.57 34.44C34.57 33.61 33.9 32.94 33.07 32.94 32.24 32.94 31.57 33.61 31.57 34.44L31.57 38.35C29.58 38.15 27.68 37.52 25.82 36.45L29.69 26.98C30.72 27.44 31.87 27.7 33.07 27.7 34.25 27.7 35.37 27.45 36.39 27.01L39.9 36.68C38.17 37.61 36.41 38.17 34.57 38.35Z" class="MsftOfcResponsive_Fill_1742f6" stroke="none" stroke-width="1" stroke-linecap="butt" stroke-linejoin="miter" stroke-miterlimit="4" fill="#1742F6" fill-opacity="1"/></svg>