<svg viewBox="0 0 100 100" xmlns="http://www.w3.org/2000/svg" xmlns:xlink="http://www.w3.org/1999/xlink" id="Layer_1" xml:space="preserve" overflow="hidden"><g><rect x="46.1" y="34.8" width="19.1" height="19.2" stroke="#FFFFFF" stroke-width="3" stroke-linecap="round" stroke-linejoin="round" stroke-miterlimit="10" fill="none"/><path d="M60.7 49.3 50.8 49.3 50.8 39.4 56.9 39.4 60.7 43.2Z" stroke="#FFFFFF" stroke-width="3" stroke-linecap="round" stroke-linejoin="round" stroke-miterlimit="10" fill="none"/><path d="M61.5 33.8 61.5 26.9 65.5 26.9" stroke="#FFFFFF" stroke-width="3" stroke-linecap="round" stroke-linejoin="round" stroke-miterlimit="10" fill="none"/><line x1="53.6" y1="34.1" x2="53.6" y2="29.6" stroke="#FFFFFF" stroke-width="3" stroke-linecap="round" stroke-linejoin="round" stroke-miterlimit="10" fill="none"/><line x1="43" y1="44.1" x2="46" y2="44.1" stroke="#FFFFFF" stroke-width="3" stroke-linecap="round" stroke-linejoin="round" stroke-miterlimit="10" fill="none"/><line x1="49.6" y1="57" x2="49.6" y2="54.7" stroke="#FFFFFF" stroke-width="3" stroke-linecap="round" stroke-linejoin="round" stroke-miterlimit="10" fill="none"/><line x1="66.9" y1="37.3" x2="77" y2="37.3" stroke="#FFFFFF" stroke-width="3" stroke-linecap="round" stroke-linejoin="round" stroke-miterlimit="10" fill="none"/><line x1="68.3" y1="49.3" x2="66.1" y2="49.3" stroke="#FFFFFF" stroke-width="3" stroke-linecap="round" stroke-linejoin="round" stroke-miterlimit="10" fill="none"/><line x1="57.7" y1="54.6" x2="57.7" y2="61.3" stroke="#FFFFFF" stroke-width="3" stroke-linecap="round" stroke-linejoin="round" stroke-miterlimit="10" fill="none"/><path d="M44.9 38.4 39.7 38.4 39.7 26.9 45.1 21.6" stroke="#FFFFFF" stroke-width="3" stroke-linecap="round" stroke-linejoin="round" stroke-miterlimit="10" fill="none"/><circle cx="47.5" cy="19.3" r="2.4" stroke="#FFFFFF" stroke-width="3" stroke-linecap="round" stroke-linejoin="round" stroke-miterlimit="10" fill="none"/><circle cx="80.9" cy="51.5" r="2.4" stroke="#FFFFFF" stroke-width="3" stroke-linecap="round" stroke-linejoin="round" stroke-miterlimit="10" fill="none"/><circle cx="42.3" cy="60.6" r="2.5" stroke="#FFFFFF" stroke-width="3" stroke-linecap="round" stroke-linejoin="round" stroke-miterlimit="10" fill="none"/></g><path d="M45.5 50.3 42.1 50.3 42.1 57.7" stroke="#FFFFFF" stroke-width="3" stroke-linecap="round" stroke-linejoin="round" stroke-miterlimit="10" fill="none"/><path d="M66.8 42.3 73.4 42.3 73.4 51.4 77.4 51.4" stroke="#FFFFFF" stroke-width="3" stroke-linecap="round" stroke-linejoin="round" stroke-miterlimit="10" fill="none"/><path d="M54.2 22.3 54.3 11.2C54.3 10.2 53.5 9.5 52.5 9.5 48.7 9.8 39 11 30.8 17.2 21 24.7 16.5 38 16.8 41.2 17 44.2 17.8 45.7 17.5 48.5 17.2 51.5 12.7 59.3 11.3 64.1 10.8 65.9 11.7 67.5 12.7 67.6 15.9 67.8 18.4 67.7 19.5 67.6 19.8 67.6 20 67.8 20 68.1 19.8 69.6 19.2 73 19.5 74.3 20 76.1 22.4 76.7 22.7 80.2 23 83.7 21.4 84.3 23.8 87.3 25.3 89.1 28.8 92.2 33.3 90.6 38.2 88.9 49.1 83.6 49.4 82.3 49.7 81.4 49.7 62.5 49.7 62.5" stroke="#FFFFFF" stroke-width="3" stroke-linecap="round" stroke-linejoin="round" stroke-miterlimit="10" fill="none"/><path d="M55 13.7C55 13.7 66.6 13.6 76.7 22 79.9 24.6 82.3 27.7 84.1 30.9 87.2 36.3 88 41.3 88.2 44.6 88.6 50 87.4 56.6 84 62.7 81 68.1 77.9 71.7 76.1 74.3 75.9 74.6 75.7 74.8 75.4 74.8L73.5 74.8" stroke="#FFFFFF" stroke-width="3" stroke-linecap="round" stroke-linejoin="round" stroke-miterlimit="10" fill="none"/><line x1="52.7" y1="74.6" x2="50.2" y2="74.6" stroke="#FFFFFF" stroke-width="3" stroke-linecap="round" stroke-linejoin="round" stroke-miterlimit="10" fill="none"/><path d="M58.1 87.1C58.5 82.9 53.6 78 53.8 74.3 54 69.3 57.8 65.3 62.8 65.3 67.8 65.3 72.2 69.2 72.1 74.2 72 77.5 67.8 83.1 68.1 87" stroke="#FFFFFF" stroke-width="3" stroke-linecap="round" stroke-linejoin="round" stroke-miterlimit="10" fill="none"/><path d="" stroke="#FFFFFF" stroke-width="3" stroke-linecap="round" stroke-linejoin="round" stroke-miterlimit="10" fill="none"/><path d="" stroke="#FFFFFF" stroke-width="3" stroke-linecap="round" stroke-linejoin="round" stroke-miterlimit="10" fill="none"/></svg>