<svg viewBox="0 0 100 100" xmlns="http://www.w3.org/2000/svg" xmlns:xlink="http://www.w3.org/1999/xlink" id="Layer_1" xml:space="preserve" overflow="hidden"><path d="" stroke="#5E5F61" stroke-width="3" stroke-linecap="round" stroke-linejoin="round" stroke-miterlimit="10" fill="none"/><g><path d="M68.4 32.8 73.5 32.8 39.9 16.5 6.3 32.8 11.4 32.8M15.9 37.6 15.9 63.9 10.2 63.9 10.2 69.3 8.3 69.3 8.3 74.7 42.9 74.7M44.3 50.5 44.3 37.6M55.2 37.6 55.2 41.2M39.9 23.4C41 23.4 41.9 24.3 41.9 25.4 41.9 26.5 41 27.4 39.9 27.4 38.8 27.4 37.9 26.5 37.9 25.4 37.9 24.3 38.8 23.4 39.9 23.4ZM35.6 37.6 35.6 63.9 24.6 63.9 24.6 37.6" stroke="#FFFFFF" stroke-width="3" stroke-linecap="round" stroke-linejoin="round" stroke-miterlimit="10" fill="none"/><line x1="10.2" y1="69.3" x2="38.9" y2="69.3" stroke="#FFFFFF" stroke-width="3" stroke-linecap="round" stroke-linejoin="round" stroke-miterlimit="10" fill="none"/><path d="M15.9 37.6 11.5 37.6 11.5 32.8" stroke="#FFFFFF" stroke-width="3" stroke-linecap="round" stroke-linejoin="round" stroke-miterlimit="10" fill="none"/><line x1="35.6" y1="37.6" x2="24.6" y2="37.6" stroke="#FFFFFF" stroke-width="3" stroke-linecap="round" stroke-linejoin="round" stroke-miterlimit="10" fill="none"/><line x1="55.2" y1="37.6" x2="44.3" y2="37.6" stroke="#FFFFFF" stroke-width="3" stroke-linecap="round" stroke-linejoin="round" stroke-miterlimit="10" fill="none"/><line x1="68.4" y1="32.8" x2="68.4" y2="35" stroke="#FFFFFF" stroke-width="3" stroke-linecap="round" stroke-linejoin="round" stroke-miterlimit="10" fill="none"/></g><g><g><path d="M76.3 79.3 60.7 79.3C58.3 79.3 56.3 81.3 56.3 83.7L56.3 83.7 80.7 83.7 80.7 83.7C80.7 81.3 78.7 79.3 76.3 79.3Z" stroke="#FFFFFF" stroke-width="3" stroke-linecap="round" stroke-linejoin="round" stroke-miterlimit="10" fill="none"/><line x1="63.2" y1="47.6" x2="51.6" y2="47.6" stroke="#FFFFFF" stroke-width="3" stroke-linecap="round" stroke-linejoin="round" stroke-miterlimit="10" fill="none"/><path d="" stroke="#FFFFFF" stroke-width="3" stroke-linecap="round" stroke-linejoin="round" stroke-miterlimit="10" fill="none"/><line x1="85.4" y1="47.6" x2="73.4" y2="47.6" stroke="#FFFFFF" stroke-width="3" stroke-linecap="round" stroke-linejoin="round" stroke-miterlimit="10" fill="none"/><line x1="68.5" y1="52.2" x2="68.5" y2="79.3" stroke="#FFFFFF" stroke-width="3" stroke-linecap="round" stroke-linejoin="round" stroke-miterlimit="10" fill="none"/><path d="" stroke="#FFFFFF" stroke-width="3" stroke-linecap="round" stroke-linejoin="round" stroke-miterlimit="10" fill="none"/><line x1="68.5" y1="39.3" x2="68.5" y2="42.3" stroke="#FFFFFF" stroke-width="3" stroke-linecap="round" stroke-linejoin="round" stroke-miterlimit="10" fill="none"/><path d="M51.6 47.6 44.5 64.8 58.8 64.8Z" stroke="#FFFFFF" stroke-width="3" stroke-linecap="round" stroke-linejoin="round" stroke-miterlimit="10" fill="none"/><path d="M58.8 64.8C58.8 68.7 55.6 71.9 51.7 71.9 47.8 71.9 44.6 68.7 44.6 64.8" stroke="#FFFFFF" stroke-width="3" stroke-linecap="round" stroke-linejoin="round" stroke-miterlimit="10" fill="none"/><path d="M85.5 47.6 78.3 64.9 92.6 64.9Z" stroke="#FFFFFF" stroke-width="3" stroke-linecap="round" stroke-linejoin="round" stroke-miterlimit="10" fill="none"/><path d="M92.6 64.9C92.6 68.8 89.4 72 85.5 72 81.6 72 78.4 68.8 78.4 64.9" stroke="#FFFFFF" stroke-width="3" stroke-linecap="round" stroke-linejoin="round" stroke-miterlimit="10" fill="none"/></g><circle cx="68.5" cy="47.6" r="4.2" stroke="#FFFFFF" stroke-width="3" stroke-linecap="round" stroke-linejoin="round" stroke-miterlimit="10" fill="none"/></g></svg>