<svg viewBox="0 0 100 100" xmlns="http://www.w3.org/2000/svg" xmlns:xlink="http://www.w3.org/1999/xlink" id="Layer_1" xml:space="preserve" overflow="hidden"><g><path d="M44 26.1 37.7 26.1C35.8 26.1 34.3 27.6 34.3 29.5L34.3 86.6C34.3 88.5 35.8 90 37.7 90L80 90C81.9 90 83.4 88.5 83.4 86.6L83.4 29.4C83.4 27.5 81.9 26 80 26L73.7 26" stroke="#FFFFFF" stroke-width="3" stroke-linecap="round" stroke-linejoin="round" stroke-miterlimit="10" fill="none"/><path d="M34.5 10.2 63.3 10.2C68.8 10.2 73.3 14.7 73.3 20.2L73.3 35.2 44.5 35.2 44.5 20.2C44.5 14.7 40 10.2 34.5 10.2L34.5 10.2C29 10.2 24.5 14.7 24.5 20.2L24.5 82.4C24.5 85.1 22.3 87.3 19.6 87.3L19.6 87.3C16.9 87.3 14.7 85.1 14.7 82.4L14.7 47.6 24.5 47.6" stroke="#FFFFFF" stroke-width="3" stroke-linecap="round" stroke-linejoin="round" stroke-miterlimit="10" fill="none"/><line x1="19.6" y1="87.3" x2="34.3" y2="87.3" stroke="#FFFFFF" stroke-width="3" stroke-linecap="round" stroke-linejoin="round" stroke-miterlimit="10" fill="none"/><rect x="44.5" y="43.1" width="28.8" height="11.8" stroke="#FFFFFF" stroke-width="3" stroke-linecap="round" stroke-linejoin="round" stroke-miterlimit="10" fill="none"/><g><line x1="44.8" y1="61.6" x2="47" y2="61.6" stroke="#FFFFFF" stroke-width="3" stroke-linecap="round" stroke-linejoin="round" stroke-miterlimit="10" fill="none"/></g><g><line x1="51.6" y1="61.6" x2="53.8" y2="61.6" stroke="#FFFFFF" stroke-width="3" stroke-linecap="round" stroke-linejoin="round" stroke-miterlimit="10" fill="none"/></g><g><line x1="58.3" y1="61.6" x2="60.6" y2="61.6" stroke="#FFFFFF" stroke-width="3" stroke-linecap="round" stroke-linejoin="round" stroke-miterlimit="10" fill="none"/></g><g><line x1="65.1" y1="61.6" x2="67.3" y2="61.6" stroke="#FFFFFF" stroke-width="3" stroke-linecap="round" stroke-linejoin="round" stroke-miterlimit="10" fill="none"/></g><g><line x1="71.9" y1="61.6" x2="74.1" y2="61.6" stroke="#FFFFFF" stroke-width="3" stroke-linecap="round" stroke-linejoin="round" stroke-miterlimit="10" fill="none"/></g><g><line x1="44.8" y1="68.4" x2="47" y2="68.4" stroke="#FFFFFF" stroke-width="3" stroke-linecap="round" stroke-linejoin="round" stroke-miterlimit="10" fill="none"/></g><g><line x1="51.6" y1="68.4" x2="53.8" y2="68.4" stroke="#FFFFFF" stroke-width="3" stroke-linecap="round" stroke-linejoin="round" stroke-miterlimit="10" fill="none"/></g><g><line x1="58.3" y1="68.4" x2="60.6" y2="68.4" stroke="#FFFFFF" stroke-width="3" stroke-linecap="round" stroke-linejoin="round" stroke-miterlimit="10" fill="none"/></g><g><line x1="65.1" y1="68.4" x2="67.3" y2="68.4" stroke="#FFFFFF" stroke-width="3" stroke-linecap="round" stroke-linejoin="round" stroke-miterlimit="10" fill="none"/></g><g><line x1="73" y1="66.7" x2="73" y2="83.5" stroke="#FFFFFF" stroke-width="3" stroke-linecap="round" stroke-linejoin="round" stroke-miterlimit="10" fill="none"/></g><g><line x1="44.8" y1="75.2" x2="47" y2="75.2" stroke="#FFFFFF" stroke-width="3" stroke-linecap="round" stroke-linejoin="round" stroke-miterlimit="10" fill="none"/></g><g><line x1="51.6" y1="75.2" x2="53.8" y2="75.2" stroke="#FFFFFF" stroke-width="3" stroke-linecap="round" stroke-linejoin="round" stroke-miterlimit="10" fill="none"/></g><g><line x1="58.3" y1="75.2" x2="60.6" y2="75.2" stroke="#FFFFFF" stroke-width="3" stroke-linecap="round" stroke-linejoin="round" stroke-miterlimit="10" fill="none"/></g><g><line x1="65.1" y1="75.2" x2="67.3" y2="75.2" stroke="#FFFFFF" stroke-width="3" stroke-linecap="round" stroke-linejoin="round" stroke-miterlimit="10" fill="none"/></g><g><line x1="44.8" y1="82" x2="47" y2="82" stroke="#FFFFFF" stroke-width="3" stroke-linecap="round" stroke-linejoin="round" stroke-miterlimit="10" fill="none"/></g><g><line x1="51.6" y1="82" x2="53.8" y2="82" stroke="#FFFFFF" stroke-width="3" stroke-linecap="round" stroke-linejoin="round" stroke-miterlimit="10" fill="none"/></g><g><line x1="58.3" y1="82" x2="60.6" y2="82" stroke="#FFFFFF" stroke-width="3" stroke-linecap="round" stroke-linejoin="round" stroke-miterlimit="10" fill="none"/></g><g><line x1="65.1" y1="82" x2="67.3" y2="82" stroke="#FFFFFF" stroke-width="3" stroke-linecap="round" stroke-linejoin="round" stroke-miterlimit="10" fill="none"/></g></g></svg>