<svg viewBox="0 0 100 100" xmlns="http://www.w3.org/2000/svg" xmlns:xlink="http://www.w3.org/1999/xlink" id="Layer_1" xml:space="preserve" overflow="hidden"><style>
.MsftOfcThm_Accent1_Fill_v2 {
 fill:#1742F6; 
}
</style>
<g><g><path d="M40.2 46.9 19.6 46.9C18.8 46.9 18.1 46.2 18.1 45.4L18.1 24.2C18.1 23.4 18.8 22.7 19.6 22.7L40.2 22.7C41 22.7 41.7 23.4 41.7 24.2L41.7 26.2C41.7 27 41 27.7 40.2 27.7 39.4 27.7 38.7 27 38.7 26.2L38.7 25.7 21.1 25.7 21.1 43.9 38.7 43.9 38.7 37.3C38.7 36.5 39.4 35.8 40.2 35.8 41 35.8 41.7 36.5 41.7 37.3L41.7 45.4C41.7 46.3 41 46.9 40.2 46.9Z" class="MsftOfcThm_Accent1_Fill_v2" stroke="none" stroke-width="1" stroke-linecap="butt" stroke-linejoin="miter" stroke-miterlimit="4" fill="#1742F6" fill-opacity="1"/></g><g><path d="M29.1 42.1C28.7 42.1 28.3 42 28 41.7L23.8 37.5C23.2 36.9 23.2 36 23.8 35.4 24.4 34.8 25.3 34.8 25.9 35.4L29.1 38.6 39.2 30.2C39.8 29.7 40.8 29.8 41.3 30.4 41.8 31 41.7 32 41.1 32.5L30 41.8C29.7 42 29.4 42.1 29.1 42.1Z" class="MsftOfcThm_Accent1_Fill_v2" stroke="none" stroke-width="1" stroke-linecap="butt" stroke-linejoin="miter" stroke-miterlimit="4" fill="#1742F6" fill-opacity="1"/></g><g><path d="M80.4 33.4 49.9 33.4C49.1 33.4 48.4 32.7 48.4 31.9 48.4 31.1 49.1 30.4 49.9 30.4L80.4 30.4C81.2 30.4 81.9 31.1 81.9 31.9 81.9 32.7 81.3 33.4 80.4 33.4Z" class="MsftOfcThm_Accent1_Fill_v2" stroke="none" stroke-width="1" stroke-linecap="butt" stroke-linejoin="miter" stroke-miterlimit="4" fill="#1742F6" fill-opacity="1"/></g><g><path d="M70.4 39.8 49.9 39.8C49.1 39.8 48.4 39.1 48.4 38.3 48.4 37.5 49.1 36.8 49.9 36.8L70.4 36.8C71.2 36.8 71.9 37.5 71.9 38.3 71.9 39.1 71.3 39.8 70.4 39.8Z" class="MsftOfcThm_Accent1_Fill_v2" stroke="none" stroke-width="1" stroke-linecap="butt" stroke-linejoin="miter" stroke-miterlimit="4" fill="#1742F6" fill-opacity="1"/></g><g><path d="M80.4 63.6 49.9 63.6C49.1 63.6 48.4 62.9 48.4 62.1 48.4 61.3 49.1 60.6 49.9 60.6L80.4 60.6C81.2 60.6 81.9 61.3 81.9 62.1 81.9 62.9 81.3 63.6 80.4 63.6Z" class="MsftOfcThm_Accent1_Fill_v2" stroke="none" stroke-width="1" stroke-linecap="butt" stroke-linejoin="miter" stroke-miterlimit="4" fill="#1742F6" fill-opacity="1"/></g><g><path d="M70.4 70 49.9 70C49.1 70 48.4 69.3 48.4 68.5 48.4 67.7 49.1 67 49.9 67L70.4 67C71.2 67 71.9 67.7 71.9 68.5 71.9 69.3 71.3 70 70.4 70Z" class="MsftOfcThm_Accent1_Fill_v2" stroke="none" stroke-width="1" stroke-linecap="butt" stroke-linejoin="miter" stroke-miterlimit="4" fill="#1742F6" fill-opacity="1"/></g><g><path d="M40.2 77.3 19.6 77.3C18.8 77.3 18.1 76.6 18.1 75.8L18.1 53.9C18.1 53.1 18.8 52.4 19.6 52.4L40.2 52.4C41 52.4 41.7 53.1 41.7 53.9L41.7 75.8C41.7 76.6 41 77.3 40.2 77.3ZM21.1 74.3 38.7 74.3 38.7 55.4 21.1 55.4 21.1 74.3Z" class="MsftOfcThm_Accent1_Fill_v2" stroke="none" stroke-width="1" stroke-linecap="butt" stroke-linejoin="miter" stroke-miterlimit="4" fill="#1742F6" fill-opacity="1"/></g></g></svg>