<svg viewBox="0 0 100 100" xmlns="http://www.w3.org/2000/svg" xmlns:xlink="http://www.w3.org/1999/xlink" id="Layer_1" overflow="hidden"><defs></defs><g><g><path d="M59.12 33.22C58.74 33.22 58.35 33.07 58.06 32.78 57.47 32.19 57.47 31.24 58.06 30.66L62.97 25.75C63.56 25.16 64.51 25.16 65.09 25.75 65.67 26.34 65.68 27.29 65.09 27.87L60.18 32.78C59.89 33.07 59.5 33.22 59.12 33.22Z" fill="#1742F5"/><path d="M67.6 29.79 67.55 29.79C65.81 29.78 64.18 29.09 62.96 27.85 60.44 25.29 60.47 21.17 63.03 18.65 64.26 17.44 65.88 16.78 67.6 16.78L67.65 16.78C69.39 16.79 71.02 17.48 72.24 18.72 73.46 19.96 74.13 21.6 74.11 23.33 74.1 25.07 73.41 26.7 72.17 27.92 70.94 29.13 69.32 29.79 67.6 29.79ZM67.6 19.78C66.67 19.78 65.8 20.14 65.14 20.79 63.76 22.15 63.75 24.37 65.11 25.75 65.77 26.42 66.65 26.79 67.58 26.79L67.61 26.79C68.54 26.79 69.41 26.43 70.07 25.78L70.07 25.78C70.74 25.12 71.11 24.24 71.12 23.31 71.12 22.37 70.77 21.49 70.11 20.82 69.45 20.15 68.57 19.78 67.64 19.77L67.61 19.77Z" fill="#1742F5"/></g><g><path d="M70.86 42.35 63.91 42.35C63.08 42.35 62.41 41.68 62.41 40.85 62.41 40.02 63.08 39.35 63.91 39.35L70.86 39.35C71.69 39.35 72.36 40.02 72.36 40.85 72.36 41.68 71.69 42.35 70.86 42.35Z" fill="#1742F5"/><path d="M75.86 47.39 75.82 47.39C72.23 47.36 69.33 44.42 69.36 40.84 69.37 39.1 70.06 37.47 71.3 36.25 72.53 35.04 74.15 34.38 75.87 34.38L75.92 34.38C79.51 34.41 82.41 37.34 82.38 40.93 82.35 44.5 79.44 47.39 75.87 47.39ZM75.84 44.39 75.86 44.39C77.78 44.39 79.36 42.83 79.37 40.91 79.38 38.98 77.82 37.39 75.89 37.38L75.86 37.38C73.94 37.38 72.37 38.94 72.35 40.86 72.34 42.79 73.9 44.38 75.83 44.39L75.83 44.39Z" fill="#1742F5"/></g><g><path d="M36.09 42.42 29.14 42.42C28.31 42.42 27.64 41.75 27.64 40.92 27.64 40.09 28.31 39.42 29.14 39.42L36.09 39.42C36.92 39.42 37.59 40.09 37.59 40.92 37.59 41.75 36.92 42.42 36.09 42.42Z" fill="#1742F5"/><path d="M24.13 47.39 24.09 47.39C20.5 47.36 17.6 44.43 17.63 40.84 17.64 39.1 18.33 37.47 19.57 36.25 20.8 35.04 22.42 34.38 24.14 34.38L24.19 34.38C25.93 34.39 27.56 35.08 28.78 36.32 30 37.56 30.67 39.2 30.65 40.94 30.63 44.51 27.71 47.4 24.14 47.4ZM24.13 37.38C23.2 37.38 22.33 37.74 21.67 38.39 21 39.05 20.63 39.93 20.63 40.86 20.62 42.79 22.18 44.38 24.11 44.39 26.06 44.42 27.63 42.84 27.64 40.91 27.65 38.98 26.09 37.39 24.16 37.38L24.13 37.38Z" fill="#1742F5"/></g><g><path d="M40.83 33.27C40.45 33.27 40.06 33.12 39.77 32.83L34.86 27.92C34.27 27.33 34.27 26.38 34.86 25.8 35.45 25.22 36.4 25.21 36.98 25.8L41.89 30.71C42.48 31.3 42.48 32.25 41.89 32.83 41.6 33.12 41.21 33.27 40.83 33.27Z" fill="#1742F5"/><path d="M32.4 29.79 32.35 29.79C30.61 29.78 28.98 29.09 27.76 27.85 26.54 26.61 25.87 24.97 25.89 23.24 25.9 21.5 26.59 19.87 27.83 18.65 29.07 17.43 30.74 16.77 32.45 16.77 34.19 16.78 35.82 17.47 37.04 18.71L37.04 18.71C39.56 21.26 39.53 25.39 36.97 27.91 35.74 29.12 34.12 29.78 32.4 29.78ZM32.4 19.78C31.47 19.78 30.6 20.14 29.94 20.79 29.27 21.45 28.9 22.33 28.9 23.26 28.9 24.2 29.25 25.08 29.91 25.75 30.57 26.42 31.45 26.79 32.38 26.8L32.41 26.8C33.34 26.8 34.21 26.44 34.87 25.79 36.25 24.43 36.26 22.21 34.9 20.83 34.24 20.16 33.36 19.79 32.43 19.79L32.4 19.79Z" fill="#1742F5"/></g><g><path d="M49.96 29.46C49.13 29.46 48.46 28.79 48.46 27.96L48.46 21.01C48.46 20.18 49.13 19.51 49.96 19.51 50.79 19.51 51.46 20.18 51.46 21.01L51.46 27.96C51.46 28.79 50.79 29.46 49.96 29.46Z" fill="#1742F5"/><path d="M50 22.51 49.96 22.51C48.22 22.5 46.59 21.81 45.37 20.57 44.15 19.33 43.48 17.69 43.5 15.95 43.53 12.38 46.44 9.49 50.01 9.49L50.05 9.49C53.64 9.52 56.54 12.45 56.51 16.04L56.51 16.04C56.48 19.61 53.57 22.5 50 22.5ZM50 12.49C48.08 12.49 46.5 14.05 46.49 15.97 46.48 17.9 48.04 19.49 49.97 19.5 51.89 19.55 53.49 17.95 53.5 16.02 53.51 14.09 51.95 12.5 50.02 12.49L50 12.49Z" fill="#1742F5"/></g></g><g><g><path d="M47 90.51C46.17 90.51 45.5 89.84 45.5 89.01L45.5 79.15 38.96 71.37C37.47 69.59 37.51 67.41 37.54 66.92L37.54 58.6C37.54 56.47 39.27 54.74 41.4 54.74 43.53 54.74 45.26 56.47 45.26 58.6L45.26 64.32 46.33 65.07 46.33 42.63C46.33 40.5 48.09 38.77 50.25 38.77 52.41 38.77 54.17 40.5 54.17 42.63L54.17 52.45C54.46 52.38 54.77 52.34 55.09 52.34 57.25 52.34 59.01 54.07 59.01 56.2L59.01 59.6C59.01 60.43 58.34 61.1 57.51 61.1 56.68 61.1 56.01 60.43 56.01 59.6L56.01 56.2C56.01 55.73 55.6 55.34 55.09 55.34 54.58 55.34 54.17 55.72 54.17 56.2L54.17 59.6C54.17 60.43 53.5 61.1 52.67 61.1 51.84 61.1 51.17 60.43 51.17 59.6L51.17 42.62C51.17 42.15 50.76 41.76 50.25 41.76 49.74 41.76 49.33 42.14 49.33 42.62L49.33 67.94C49.33 68.5 49.02 69.01 48.52 69.27 48.02 69.53 47.43 69.49 46.97 69.17L42.9 66.32C42.5 66.04 42.26 65.58 42.26 65.09L42.26 58.59C42.26 58.12 41.88 57.73 41.4 57.73 40.92 57.73 40.54 58.11 40.54 58.59L40.54 66.96C40.54 66.96 40.54 67.05 40.54 67.09 40.54 67.09 40.45 68.46 41.25 69.41L42.78 71.18 48.16 77.63C48.38 77.9 48.51 78.24 48.51 78.59L48.51 89C48.51 89.83 47.84 90.5 47.01 90.5Z" fill="#1742F5"/><path d="M62.34 61.11C61.51 61.11 60.84 60.44 60.84 59.61L60.84 57.03C60.84 56.56 60.43 56.17 59.92 56.17 59.41 56.17 59 56.55 59 57.03 59 57.86 58.33 58.53 57.5 58.53 56.67 58.53 56 57.86 56 57.03 56 54.9 57.76 53.17 59.92 53.17 62.08 53.17 63.84 54.9 63.84 57.03L63.84 59.61C63.84 60.44 63.17 61.11 62.34 61.11Z" fill="#1742F5"/><path d="M64.76 87.25C63.93 87.25 63.26 86.58 63.26 85.75L63.26 77.71C63.26 77.11 63.62 76.57 64.16 76.33 65.31 75.83 65.68 73.38 65.67 72.27L65.67 58.3C65.67 57.83 65.26 57.44 64.75 57.44 64.24 57.44 63.83 57.82 63.83 58.3 63.83 59.13 63.16 59.8 62.33 59.8 61.5 59.8 60.83 59.13 60.83 58.3 60.83 56.17 62.59 54.44 64.75 54.44 66.91 54.44 68.67 56.17 68.67 58.3L68.67 72.26C68.67 72.75 68.62 76.72 66.25 78.55L66.25 85.74C66.25 86.57 65.58 87.24 64.75 87.24Z" fill="#1742F5"/></g><path d="M42.8 49.5C42.33 49.5 41.87 49.28 41.58 48.87 40.32 47.09 39.65 45 39.65 42.81 39.65 37.05 44.34 32.35 50.11 32.35 55.88 32.35 60.57 37.04 60.57 42.81 60.57 44.9 59.95 46.93 58.78 48.66 58.32 49.35 57.38 49.53 56.7 49.06 56.01 48.6 55.83 47.66 56.3 46.98 57.13 45.75 57.57 44.31 57.57 42.81 57.57 38.7 54.23 35.35 50.11 35.35 45.99 35.35 42.65 38.69 42.65 42.81 42.65 44.37 43.13 45.86 44.03 47.13 44.51 47.81 44.35 48.74 43.68 49.22 43.42 49.41 43.11 49.5 42.81 49.5Z" fill="#1742F5"/></g></svg>