<svg viewBox="0 0 100 100" xmlns="http://www.w3.org/2000/svg" xmlns:xlink="http://www.w3.org/1999/xlink" id="Layer_1" xml:space="preserve" overflow="hidden"><g><path d="M21.2 39.9 41.4 39.9C43.8 39.9 45.7 38 45.7 35.6L45.7 21.2C45.7 18.8 43.8 16.9 41.4 16.9L21.2 16.9C18.8 16.9 16.9 18.8 16.9 21.2L16.9 35.6C16.8 38 18.8 39.9 21.2 39.9ZM19.7 21.2C19.7 20.4 20.3 19.8 21.1 19.8L41.3 19.8C42.1 19.8 42.7 20.4 42.7 21.2L42.7 35.6C42.7 36.4 42.1 37 41.3 37L21.2 37C20.4 37 19.8 36.4 19.8 35.6L19.8 21.2Z" fill="#FFFFFF"/><path d="M77.4 60.1 57.2 60.1C54.8 60.1 52.9 62 52.9 64.4L52.9 78.8C52.9 81.2 54.8 83.1 57.2 83.1L77.4 83.1C79.8 83.1 81.7 81.2 81.7 78.8L81.7 64.4C81.7 62 79.8 60.1 77.4 60.1ZM78.8 78.8C78.8 79.6 78.2 80.2 77.4 80.2L57.2 80.2C56.4 80.2 55.8 79.6 55.8 78.8L55.8 64.4C55.8 63.6 56.4 63 57.2 63L77.4 63C78.2 63 78.8 63.6 78.8 64.4L78.8 78.8Z" fill="#FFFFFF"/><path d="M78.8 26.9 69.3 26.9 61.1 18.7C60.5 18.1 59.6 18.1 59.1 18.7L50.4 27.4C49.8 28 49.8 28.9 50.4 29.4L59.1 38.1C59.4 38.4 59.7 38.5 60.1 38.5 60.5 38.5 60.8 38.3 61.1 38.1L69.3 29.9 78.8 29.9C79.6 29.9 80.2 30.5 80.2 31.3L80.2 39.9 80.2 44.2C80.2 46.6 78.3 48.5 75.9 48.5L24 48.5C20 48.5 16.8 51.7 16.8 55.7L16.8 60 16.8 68.6C16.8 71 18.7 72.9 21.1 72.9L43.6 72.9 37.4 79.1C36.8 79.7 36.8 80.6 37.4 81.1 37.7 81.4 38.1 81.5 38.4 81.5 38.8 81.5 39.1 81.4 39.4 81.1L48.1 72.4C48.7 71.8 48.7 70.9 48.1 70.4L39.5 62C38.9 61.4 38 61.4 37.5 62 36.9 62.6 36.9 63.5 37.5 64L43.7 70.2 21.2 70.2C20.4 70.2 19.8 69.6 19.8 68.8L19.8 60.2 19.8 55.9C19.8 53.5 21.7 51.6 24.1 51.6L76 51.6C80 51.6 83.2 48.4 83.2 44.4L83.2 40.1 83.2 31.5C83.2 28.9 81.2 26.9 78.8 26.9ZM60.1 35 53.5 28.4 60.1 21.8 66.7 28.4 60.1 35Z" fill="#FFFFFF"/><g><circle cx="58.7" cy="71.6" r="1.4" fill="#FFFFFF"/><circle cx="58.7" cy="77.4" r="1.4" fill="#FFFFFF"/><circle cx="58.7" cy="65.9" r="1.4" fill="#FFFFFF"/><circle cx="63" cy="68.7" r="1.4" fill="#FFFFFF"/><circle cx="63" cy="74.5" r="1.4" fill="#FFFFFF"/><circle cx="67.3" cy="71.6" r="1.4" fill="#FFFFFF"/><circle cx="67.3" cy="77.4" r="1.4" fill="#FFFFFF"/><circle cx="67.3" cy="65.9" r="1.4" fill="#FFFFFF"/><circle cx="71.6" cy="68.7" r="1.4" fill="#FFFFFF"/><circle cx="71.6" cy="74.5" r="1.4" fill="#FFFFFF"/><circle cx="76" cy="71.6" r="1.4" fill="#FFFFFF"/><circle cx="76" cy="77.4" r="1.4" fill="#FFFFFF"/><circle cx="76" cy="65.9" r="1.4" fill="#FFFFFF"/></g></g></svg>