<svg viewBox="0 0 100 100" xmlns="http://www.w3.org/2000/svg" xmlns:xlink="http://www.w3.org/1999/xlink" id="Layer_1" xml:space="preserve" overflow="hidden"><style>
.MsftOfcThm_Accent1_Stroke_v2 {
 stroke:#1742F6; 
}
</style>
<g><line x1="50" y1="16.8" x2="50" y2="23.2" class="MsftOfcThm_Accent1_Stroke_v2" stroke="#1742F6" stroke-width="3" stroke-linecap="round" stroke-linejoin="round" stroke-miterlimit="10" stroke-opacity="1" fill="none"/><path d="M22.6 50.6 13 50.6 13 61.8" class="MsftOfcThm_Accent1_Stroke_v2" stroke="#1742F6" stroke-width="3" stroke-linecap="round" stroke-linejoin="round" stroke-miterlimit="10" stroke-opacity="1" fill="none"/><path d="M67.7 29.7 69.3 28 69.3 16.8" class="MsftOfcThm_Accent1_Stroke_v2" stroke="#1742F6" stroke-width="3" stroke-linecap="round" stroke-linejoin="round" stroke-miterlimit="10" stroke-opacity="1" fill="none"/><path d="M29.1 52.9 29.1 48.3C29.1 47.7 29.6 47.3 30.1 47.3L32.8 47.3C33.3 47.3 33.7 47 33.8 46.5 34.2 44.9 34.8 43.5 35.6 42.1 35.8 41.7 35.8 41.2 35.5 40.8L33.8 39.1C33.2 38.5 33.2 37.8 33.6 37.4L36.9 34.1C37.3 33.7 38 33.7 38.4 34.1L40.3 36C40.6 36.3 41.2 36.4 41.6 36.1 42.9 35.3 44.4 34.7 46 34.3 46.5 34.2 46.8 33.8 46.8 33.3L46.8 31C46.8 30.2 47.3 29.7 47.8 29.7L52.4 29.7C53 29.7 53.4 30.2 53.4 30.7L53.4 33.4C53.4 33.9 53.7 34.3 54.2 34.4 55.8 34.8 57.2 35.4 58.6 36.2 59 36.4 59.5 36.4 59.9 36.1L61.6 34.4C62.2 33.8 62.9 33.8 63.3 34.2L66.6 37.5C67 37.9 67 38.6 66.6 39L64.7 40.9C64.4 41.2 64.3 41.8 64.6 42.2 65.4 43.5 66 45 66.4 46.6 66.5 47.1 66.9 47.4 67.4 47.4L69.8 47.4C70.6 47.4 71.1 47.9 71.1 48.4L71.1 53C71.1 53.6 70.6 54 70.1 54L67.4 54C66.9 54 66.5 54.3 66.4 54.8 66 56.4 65.4 57.8 64.6 59.2 64.4 59.6 64.4 60.1 64.7 60.5L66.4 62.2C67 62.8 67 63.5 66.6 63.9L63.1 67C62.7 67.4 62 67.4 61.6 67L59.7 65.1C59.4 64.8 58.8 64.7 58.4 65 57.1 65.8 55.6 66.4 54 66.8 53.5 66.9 53.2 67.3 53.2 67.8L53.2 70.4C53.2 71.1 52.8 71.5 52.4 71.5L47.6 71.5C47 71.5 46.6 71 46.6 70.5L46.6 67.8C46.6 67.3 46.3 66.9 45.8 66.8 44.2 66.4 42.8 65.8 41.4 65 41 64.8 40.5 64.8 40.1 65.1L38.4 66.8C37.8 67.4 37.1 67.4 36.7 67L33.4 63.7C33 63.3 33 62.6 33.4 62.2L35.3 60.3C35.6 60 35.7 59.4 35.4 59 34.6 57.7 34 56.2 33.6 54.6 33.5 54.1 33.1 53.8 32.6 53.8L30.2 53.8C29.5 53.9 29.1 53.4 29.1 52.9Z" class="MsftOfcThm_Accent1_Stroke_v2" stroke="#1742F6" stroke-width="3" stroke-linecap="round" stroke-linejoin="round" stroke-miterlimit="10" stroke-opacity="1" fill="none"/><circle cx="50" cy="50.6" r="8" class="MsftOfcThm_Accent1_Stroke_v2" stroke="#1742F6" stroke-width="3" stroke-linecap="round" stroke-linejoin="round" stroke-miterlimit="10" stroke-opacity="1" fill="none"/><rect x="46.8" y="10.3" width="6.4" height="6.4" class="MsftOfcThm_Accent1_Stroke_v2" stroke="#1742F6" stroke-width="3" stroke-linecap="round" stroke-linejoin="round" stroke-miterlimit="10" stroke-opacity="1" fill="none"/><rect x="66.1" y="10.3" width="6.4" height="6.4" class="MsftOfcThm_Accent1_Stroke_v2" stroke="#1742F6" stroke-width="3" stroke-linecap="round" stroke-linejoin="round" stroke-miterlimit="10" stroke-opacity="1" fill="none"/><path d="M32.3 29.7 30.7 28 30.7 16.8" class="MsftOfcThm_Accent1_Stroke_v2" stroke="#1742F6" stroke-width="3" stroke-linecap="round" stroke-linejoin="round" stroke-miterlimit="10" stroke-opacity="1" fill="none"/><rect x="27.5" y="10.3" width="6.4" height="6.4" class="MsftOfcThm_Accent1_Stroke_v2" stroke="#1742F6" stroke-width="3" stroke-linecap="round" stroke-linejoin="round" stroke-miterlimit="10" stroke-opacity="1" fill="none" transform="matrix(-1 -1.22465e-16 1.22465e-16 -1 61.3585 27.1308)"/><line x1="50" y1="84.3" x2="50" y2="77.9" class="MsftOfcThm_Accent1_Stroke_v2" stroke="#1742F6" stroke-width="3" stroke-linecap="round" stroke-linejoin="round" stroke-miterlimit="10" stroke-opacity="1" fill="none"/><path d="M67.7 71.5 69.3 73.1 69.3 84.3" class="MsftOfcThm_Accent1_Stroke_v2" stroke="#1742F6" stroke-width="3" stroke-linecap="round" stroke-linejoin="round" stroke-miterlimit="10" stroke-opacity="1" fill="none"/><rect x="46.8" y="84.3" width="6.4" height="6.4" class="MsftOfcThm_Accent1_Stroke_v2" stroke="#1742F6" stroke-width="3" stroke-linecap="round" stroke-linejoin="round" stroke-miterlimit="10" stroke-opacity="1" fill="none"/><rect x="66.1" y="84.3" width="6.4" height="6.4" class="MsftOfcThm_Accent1_Stroke_v2" stroke="#1742F6" stroke-width="3" stroke-linecap="round" stroke-linejoin="round" stroke-miterlimit="10" stroke-opacity="1" fill="none"/><path d="M32.3 71.5 30.7 73.1 30.7 84.3" class="MsftOfcThm_Accent1_Stroke_v2" stroke="#1742F6" stroke-width="3" stroke-linecap="round" stroke-linejoin="round" stroke-miterlimit="10" stroke-opacity="1" fill="none"/><rect x="27.5" y="84.3" width="6.4" height="6.4" class="MsftOfcThm_Accent1_Stroke_v2" stroke="#1742F6" stroke-width="3" stroke-linecap="round" stroke-linejoin="round" stroke-miterlimit="10" stroke-opacity="1" fill="none" transform="matrix(-1 -1.22465e-16 1.22465e-16 -1 61.3585 175.118)"/><rect x="9.8" y="61.8" width="6.4" height="6.4" class="MsftOfcThm_Accent1_Stroke_v2" stroke="#1742F6" stroke-width="3" stroke-linecap="round" stroke-linejoin="round" stroke-miterlimit="10" stroke-opacity="1" fill="none" transform="matrix(-1 -1.22465e-16 1.22465e-16 -1 25.9702 130.078)"/><path d="M77.3 50.6 87 50.6 87 39.3" class="MsftOfcThm_Accent1_Stroke_v2" stroke="#1742F6" stroke-width="3" stroke-linecap="round" stroke-linejoin="round" stroke-miterlimit="10" stroke-opacity="1" fill="none"/><rect x="83.8" y="32.9" width="6.4" height="6.4" class="MsftOfcThm_Accent1_Stroke_v2" stroke="#1742F6" stroke-width="3" stroke-linecap="round" stroke-linejoin="round" stroke-miterlimit="10" stroke-opacity="1" fill="none"/><line x1="9.8" y1="34.5" x2="22.6" y2="34.5" class="MsftOfcThm_Accent1_Stroke_v2" stroke="#1742F6" stroke-width="3" stroke-linecap="round" stroke-linejoin="round" stroke-miterlimit="10" stroke-opacity="1" fill="none"/><line x1="9.8" y1="28" x2="22.6" y2="28" class="MsftOfcThm_Accent1_Stroke_v2" stroke="#1742F6" stroke-width="3" stroke-linecap="round" stroke-linejoin="round" stroke-miterlimit="10" stroke-opacity="1" fill="none"/><line x1="9.8" y1="40.9" x2="16.2" y2="40.9" class="MsftOfcThm_Accent1_Stroke_v2" stroke="#1742F6" stroke-width="3" stroke-linecap="round" stroke-linejoin="round" stroke-miterlimit="10" stroke-opacity="1" fill="none"/><line x1="77.3" y1="73.1" x2="83.8" y2="73.1" class="MsftOfcThm_Accent1_Stroke_v2" stroke="#1742F6" stroke-width="3" stroke-linecap="round" stroke-linejoin="round" stroke-miterlimit="10" stroke-opacity="1" fill="none"/><line x1="77.3" y1="60.2" x2="90.2" y2="60.2" class="MsftOfcThm_Accent1_Stroke_v2" stroke="#1742F6" stroke-width="3" stroke-linecap="round" stroke-linejoin="round" stroke-miterlimit="10" stroke-opacity="1" fill="none"/><line x1="77.3" y1="66.6" x2="90.2" y2="66.6" class="MsftOfcThm_Accent1_Stroke_v2" stroke="#1742F6" stroke-width="3" stroke-linecap="round" stroke-linejoin="round" stroke-miterlimit="10" stroke-opacity="1" fill="none"/></g></svg>