<svg viewBox="0 0 100 100" xmlns="http://www.w3.org/2000/svg" xmlns:xlink="http://www.w3.org/1999/xlink" id="Layer_1" xml:space="preserve" overflow="hidden"><g><g><path d="M50 86.1C30.1 86.1 13.9 69.9 13.9 50 13.9 30.1 30.1 13.9 50 13.9 69.9 13.9 86.1 30.1 86.1 50 86.1 69.9 69.9 86.1 50 86.1ZM50 16.9C31.8 16.9 16.9 31.7 16.9 50 16.9 68.2 31.7 83.1 50 83.1 68.2 83.1 83.1 68.3 83.1 50 83.1 31.8 68.2 16.9 50 16.9Z" fill="#FFFFFF"/></g><g><path d="M22.6 71C22.6 71 22.6 71 22.6 71 21.7 70.9 21.1 70.2 21.1 69.4 21.2 68.4 21.4 67.5 21.5 66.5 21.8 65.2 22 64 21.8 62.8 21.6 61.7 21 60.6 20.4 59.7 18.9 57.2 17.1 54.9 15.2 52.8 14.6 52.2 14.7 51.2 15.3 50.7 15.9 50.1 16.9 50.2 17.4 50.8 19.5 53.1 21.3 55.5 22.9 58.2 23.6 59.4 24.4 60.8 24.7 62.4 25 64.1 24.7 65.6 24.4 67.2 24.2 68.1 24.1 68.9 24 69.6 24.1 70.4 23.4 71 22.6 71Z" fill="#FFFFFF"/></g><g><path d="M67.3 44C65.5 44 63.7 43.4 62.3 42.3 62.1 42.1 61.9 42 61.7 41.8 61.4 41.6 61.2 41.4 61 41.2 60.3 40.7 59.1 40.6 57.9 40.8 57 40.9 56.2 41.2 55.3 41.5 54.8 41.6 54.4 41.8 53.9 41.9 53.2 42.1 52.3 42.3 51.5 42.1 50.3 41.9 49.3 41 49 39.9 48.6 38.4 49.6 37.2 50.2 36.5 50.4 36.3 50.6 36 50.7 35.8 50.6 35.7 50.4 35.6 50.3 35.5 49.7 35 48.7 34.1 49 32.6 49.2 31.7 49.8 31.2 50.1 31 51.5 29.9 53 29.6 54.3 30.1 55 30.4 55.4 30.9 55.7 31.2L55.9 31.4C56.2 31.7 56.6 32 57 32.3 57.2 31.9 57.3 31.4 57.5 31 58.2 29.2 58.9 27.1 60.7 25.7 63.8 23.3 68.2 24.4 70.7 26.6L71 27C71.2 27.2 71.5 27.4 71.7 27.5 72 27.7 72.4 27.7 72.7 27.5 73 27.3 73.2 27 73.2 26.6 73.2 25.8 73.8 25.1 74.7 25.1 75.5 25.1 76.2 25.7 76.2 26.6 76.2 28 75.5 29.4 74.3 30.1 73.1 30.8 71.5 30.9 70.3 30.2 69.8 29.9 69.4 29.6 69.1 29.2L68.7 29C67.1 27.6 64.3 26.8 62.6 28.2 61.5 29.1 61 30.6 60.4 32.1 60.1 32.8 59.9 33.5 59.5 34.2 59.4 34.5 59 35.4 58 35.6 57.3 35.8 56.8 35.5 56.6 35.4 55.6 35 54.6 34.3 53.8 33.5L53.6 33.3C53.4 33.1 53.2 32.9 53.1 32.8 53 32.8 52.7 32.8 52.3 33.1 52.7 33.5 53.3 34 53.6 34.8 54.2 36.4 53.2 37.6 52.5 38.4 52.3 38.6 52.1 38.9 51.9 39.1 51.9 39.1 51.9 39.1 51.9 39.1 52.2 39.1 52.6 39.1 53 38.9 53.4 38.8 53.9 38.6 54.3 38.5 55.3 38.2 56.3 37.9 57.3 37.7 59.3 37.4 61.2 37.7 62.6 38.6 63 38.9 63.4 39.2 63.7 39.4 63.9 39.5 64 39.7 64.2 39.8 65.8 41.1 68.3 41.2 70.1 40.1 70.8 39.7 71.7 39.9 72.2 40.6 72.6 41.3 72.4 42.2 71.7 42.7 70.3 43.6 68.8 44 67.3 44Z" fill="#FFFFFF"/></g><g><path d="M64.1 76.4C64.1 76.4 64 76.4 64 76.4 62.8 76.4 61.6 75.6 60.9 74.4 60.4 73.5 60.2 72.5 60.1 71.7 59.9 69.8 59.8 67.8 59.8 65.9L59.8 65.5C59.8 64.3 59.9 63.2 59.5 62.3 59.2 61.6 58.4 61 57.2 60.5 55.8 59.8 54.2 59.3 52.7 59 52.5 59 52.2 58.9 51.9 58.9 50.6 58.7 49.2 58.5 47.9 57.7 45.6 56.2 44.5 53.3 44.9 49.4 45 48.5 45.1 47.4 45.6 46.4 46.2 45.1 47.2 44.2 48.1 43.3 48.9 42.5 49.7 41.8 50 40.9 50.3 40.1 51.1 39.7 51.9 39.9 52.7 40.2 53.1 41 52.9 41.8 52.4 43.4 51.2 44.4 50.2 45.4 49.5 46.1 48.7 46.8 48.4 47.6 48.1 48.2 48 48.9 48 49.6 47.9 50.9 47.8 54 49.6 55.1 50.3 55.6 51.3 55.7 52.4 55.8 52.7 55.8 52.9 55.9 53.2 55.9 55.1 56.2 56.9 56.8 58.6 57.6 59.7 58.2 61.3 59.1 62.2 60.8 63 62.3 62.9 64 62.9 65.5L62.9 65.9C62.8 67.7 62.9 69.4 63.1 71.2 63.2 71.8 63.3 72.4 63.5 72.8 63.7 73.1 63.9 73.3 64.1 73.3 64.3 73.3 64.8 73.1 65 73 67.4 71.7 69.1 70.4 70.3 69 71.8 67.3 72.7 65.3 72.7 63.4L72.7 63.1C72.7 62.6 72.7 62.1 72.9 61.5 73.3 60.2 74.3 59.5 75.1 58.8L75.3 58.7C77 57.4 78.1 55.5 78.8 52.8 79.4 50.5 81.6 48.9 83.9 49.1 84.7 49.1 85.4 49.9 85.3 50.7 85.3 51.5 84.6 52.2 83.7 52.1 82.8 52 81.9 52.7 81.6 53.6 80.7 57 79.3 59.3 77 61.1L77 61.3C76.5 61.7 75.9 62.1 75.8 62.5 75.7 62.7 75.7 63 75.7 63.3L75.7 63.6C75.6 66.2 74.5 68.8 72.5 71.1 71 72.8 69 74.3 66.3 75.8 65.7 76.1 65 76.4 64.1 76.4Z" fill="#FFFFFF"/></g><g><path d="M78.9 56.7C78.7 56.7 78.4 56.7 78.2 56.5 77.8 56.3 77.4 56.1 76.9 55.9L74.6 54.9C74 54.6 73.2 54.3 72.5 53.6 71.2 52.3 71.1 50.4 71 49.2L70.8 45.7C70.8 44.9 71.4 44.2 72.2 44.1 73 44.1 73.7 44.7 73.8 45.5L74 49C74.1 50 74.1 51 74.6 51.4 74.8 51.7 75.3 51.9 75.8 52.1L78.1 53.1C78.6 53.3 79 53.5 79.5 53.7 80.2 54.1 80.5 55 80.2 55.7 80 56.4 79.5 56.7 78.9 56.7Z" fill="#FFFFFF"/></g><g><path d="M44.5 84.6C44.1 84.6 43.8 84.5 43.5 84.3 43.1 84 42.9 83.6 42.9 83.1 42.2 82 41.2 81.1 40.1 80.6 40 80.5 39.8 80.5 39.7 80.4 39.2 80.2 38.6 79.9 38.1 79.5 36.1 77.9 36.2 75.1 36.3 73.7L36.5 65.8C36.6 63.3 36.5 60.7 35 59.3 34.2 58.6 33 58.2 31.9 57.8 31 57.4 30 57.1 29.1 57 28.7 57 28.3 57 27.8 57 26.5 57.1 25.1 57.1 23.8 56.3 22 55.1 21.6 52.9 21.3 51.6 21 50 20.5 47.6 21.6 45.5 22.5 43.8 24.2 42.8 25.5 42.1 28.2 40.6 30.8 39 33.4 37.4 34.3 36.8 35.1 36.3 35.4 35.6 35.5 35.3 35.5 35 35.5 34.6 35.5 34.3 35.5 33.9 35.6 33.5 35.7 33 35.9 32.5 36 32.1 36.1 31.7 36.3 31.3 36.3 31 36.4 30 35.4 28.9 34.5 28L30.1 23.4C29.5 22.8 29.5 21.9 30.1 21.3 30.7 20.7 31.6 20.7 32.2 21.3L36.6 25.9C38 27.3 39.4 29 39.3 31.2 39.3 31.9 39 32.6 38.8 33.1 38.7 33.4 38.6 33.7 38.5 34 38.5 34.3 38.4 34.5 38.4 34.8 38.4 35.3 38.3 35.9 38.1 36.5 37.7 38.4 36 39.4 35 40 32.4 41.6 29.7 43.2 27 44.8 26 45.4 24.8 46.1 24.3 47 23.7 48.1 24 49.5 24.3 51.1 24.5 52.2 24.8 53.4 25.5 53.8 26 54.1 26.8 54.1 27.8 54 28.3 54 28.8 53.9 29.4 54 30.7 54.1 31.9 54.5 33 54.8 34.3 55.2 35.9 55.8 37.2 57 39.6 59.3 39.7 62.7 39.6 65.7L39.4 73.6C39.4 75 39.4 76.4 40.1 77 40.3 77.2 40.7 77.3 41 77.5 41.2 77.6 41.3 77.6 41.5 77.7 43.4 78.6 45 80.1 45.9 82 46.3 82.8 46.1 83.6 45.5 84.1 45.2 84.5 44.8 84.6 44.5 84.6Z" fill="#FFFFFF"/></g></g></svg>