<svg viewBox="0 0 100 100" xmlns="http://www.w3.org/2000/svg" xmlns:xlink="http://www.w3.org/1999/xlink" id="Layer_1" overflow="hidden"><defs></defs><path d="M17.33 78.49C16.5 78.49 15.83 77.82 15.83 76.99L15.83 38.64C15.83 34.68 19.05 31.46 23.01 31.46 25.84 31.46 26.87 32.93 27.24 33.81 27.32 33.99 27.35 34.19 27.35 34.39L27.35 72.74C27.35 73.42 26.9 74.01 26.24 74.19 25.59 74.37 24.9 74.09 24.55 73.5 24.27 73.03 23.57 72.82 23 72.82 20.69 72.82 18.82 74.7 18.82 77 18.82 77.83 18.15 78.5 17.32 78.5ZM23.01 34.45C20.7 34.45 18.83 36.33 18.83 38.63L18.83 71.15C20.01 70.3 21.45 69.8 23.01 69.8 23.43 69.8 23.89 69.85 24.35 69.97L24.35 34.78C24.04 34.48 23.33 34.45 23.01 34.45Z" fill="#1742F5"/><path d="M39.02 41.56 25.85 41.56C25.02 41.56 24.35 40.89 24.35 40.06 24.35 39.23 25.02 38.56 25.85 38.56L39.02 38.56C39.85 38.56 40.52 39.23 40.52 40.06 40.52 40.89 39.85 41.56 39.02 41.56Z" fill="#1742F5"/><path d="M74.15 41.56 60.98 41.56C60.15 41.56 59.48 40.89 59.48 40.06 59.48 39.23 60.15 38.56 60.98 38.56L74.15 38.56C74.98 38.56 75.65 39.23 75.65 40.06 75.65 40.89 74.98 41.56 74.15 41.56Z" fill="#1742F5"/><path d="M76.99 84.17 23.01 84.17C19.05 84.17 15.83 80.95 15.83 76.99 15.83 76.16 16.5 75.49 17.33 75.49 18.16 75.49 18.83 76.16 18.83 76.99 18.83 79.3 20.71 81.17 23.01 81.17L76.99 81.17C79.3 81.17 81.17 79.29 81.17 76.99 81.17 76.16 81.84 75.49 82.67 75.49 83.5 75.49 84.17 76.16 84.17 76.99 84.17 80.95 80.95 84.17 76.99 84.17Z" fill="#1742F5"/><path d="M82.67 78.49C81.84 78.49 81.17 77.82 81.17 76.99 81.17 74.68 79.29 72.81 76.99 72.81 76.42 72.81 75.72 73.02 75.44 73.49 75.1 74.07 74.41 74.36 73.75 74.18 73.1 74 72.64 73.41 72.64 72.73L72.64 34.38C72.64 34.18 72.68 33.99 72.75 33.8 73.11 32.92 74.15 31.45 76.98 31.45 80.94 31.45 84.16 34.67 84.16 38.63L84.16 76.98C84.16 77.81 83.49 78.48 82.66 78.48ZM76.99 69.81C78.55 69.81 79.99 70.31 81.17 71.16L81.17 38.64C81.17 36.33 79.29 34.46 76.99 34.46 76.67 34.46 75.96 34.5 75.65 34.79L75.65 69.98C76.11 69.86 76.57 69.81 76.99 69.81Z" fill="#1742F5"/><path d="M50 30.19C49.62 30.19 49.23 30.04 48.94 29.75L46.1 26.91C45.82 26.63 45.66 26.25 45.66 25.85L45.66 20.17C45.66 19.77 45.82 19.39 46.1 19.11L48.94 16.27C49.53 15.68 50.48 15.68 51.06 16.27L53.9 19.11C54.18 19.39 54.34 19.77 54.34 20.17L54.34 25.85C54.34 26.25 54.18 26.63 53.9 26.91L51.06 29.75C50.77 30.04 50.38 30.19 50 30.19ZM48.66 25.23 50 26.57 51.34 25.23 51.34 20.79 50 19.45 48.66 20.79 48.66 25.23Z" fill="#1742F5"/><path d="M32.95 74.23C32.76 74.23 32.57 74.19 32.38 74.12 31.61 73.81 31.25 72.93 31.56 72.16L44.35 40.91C44.66 40.14 45.53 39.78 46.31 40.09 47.08 40.4 47.44 41.28 47.13 42.05L34.34 73.3C34.1 73.88 33.54 74.23 32.95 74.23Z" fill="#1742F5"/><path d="M65.63 74.23C65.02 74.23 64.44 73.85 64.22 73.24L52.86 41.99C52.58 41.21 52.98 40.35 53.76 40.07 54.54 39.79 55.4 40.19 55.68 40.97L67.04 72.22C67.32 73 66.92 73.86 66.14 74.14 65.97 74.2 65.8 74.23 65.63 74.23Z" fill="#1742F5"/><path d="M50 65.71C49.17 65.71 48.5 65.04 48.5 64.21L48.5 51.42C48.5 50.59 49.17 49.92 50 49.92 50.83 49.92 51.5 50.59 51.5 51.42L51.5 64.21C51.5 65.04 50.83 65.71 50 65.71Z" fill="#1742F5"/><path d="M50 44.4C45.26 44.4 41.4 40.54 41.4 35.8 41.4 31.06 45.26 27.2 50 27.2 54.74 27.2 58.6 31.06 58.6 35.8 58.6 40.54 54.74 44.4 50 44.4ZM50 30.19C46.91 30.19 44.4 32.7 44.4 35.79 44.4 38.88 46.91 41.39 50 41.39 53.09 41.39 55.6 38.88 55.6 35.79 55.6 32.7 53.09 30.19 50 30.19Z" fill="#1742F5"/><path d="M50 58.6C44.41 58.6 39.55 56.19 34.7 51.02 34.13 50.42 34.16 49.47 34.77 48.9 35.37 48.33 36.32 48.36 36.89 48.97 41.13 53.49 45.3 55.6 50 55.6 54.7 55.6 58.87 53.49 63.11 48.97 63.68 48.37 64.63 48.34 65.23 48.9 65.83 49.47 65.86 50.42 65.3 51.02 60.45 56.19 55.59 58.6 50 58.6Z" fill="#1742F5"/></svg>