<svg viewBox="0 0 100 100" xmlns="http://www.w3.org/2000/svg" xmlns:xlink="http://www.w3.org/1999/xlink" id="Layer_1" overflow="hidden"><defs></defs><path d="M28 18.2C31.2 21.4 31.2 26.5 28 29.7 24.8 32.9 19.7 32.9 16.5 29.7 13.3 26.5 13.3 21.4 16.5 18.2 19.7 15 24.9 15 28 18.2Z" stroke="#FFFFFF" stroke-width="3" stroke-linecap="round" stroke-linejoin="round" fill="none"/><path d="M82.3 72.5C85.5 75.7 85.5 80.8 82.3 84 79.1 87.2 74 87.2 70.8 84 67.6 80.8 67.6 75.7 70.8 72.5 74 69.3 79.2 69.3 82.3 72.5Z" stroke="#FFFFFF" stroke-width="3" stroke-linecap="round" stroke-linejoin="round" fill="none"/><path d="M16.6 72.5C19.8 69.3 24.9 69.3 28.1 72.5 31.3 75.7 31.3 80.8 28.1 84 24.9 87.2 19.8 87.2 16.6 84 13.4 80.8 13.4 75.6 16.6 72.5Z" stroke="#FFFFFF" stroke-width="3" stroke-linecap="round" stroke-linejoin="round" fill="none"/><path d="M70.9 18.2C74.1 15 79.2 15 82.4 18.2 85.6 21.4 85.6 26.5 82.4 29.7 79.2 32.9 74.1 32.9 70.9 29.7 67.7 26.5 67.7 21.3 70.9 18.2Z" stroke="#FFFFFF" stroke-width="3" stroke-linecap="round" stroke-linejoin="round" fill="none"/><path d="M64.6 15.7C55 11.6 44.1 11.6 34.4 15.7" stroke="#FFFFFF" stroke-width="3" stroke-linecap="round" stroke-linejoin="round" fill="none"/><path d="M14.3 35.9C10.2 45.5 10.2 56.4 14.3 66.1" stroke="#FFFFFF" stroke-width="3" stroke-linecap="round" stroke-linejoin="round" fill="none"/><path d="M84.7 66.1C88.8 56.5 88.8 45.6 84.7 35.9" stroke="#FFFFFF" stroke-width="3" stroke-linecap="round" stroke-linejoin="round" fill="none"/><path d="M34.4 86.1C44 90.2 54.9 90.2 64.6 86.1" stroke="#FFFFFF" stroke-width="3" stroke-linecap="round" stroke-linejoin="round" fill="none"/><line x1="22.2" y1="23.8" x2="22.2" y2="23.8" stroke="#FFFFFF" stroke-width="3" stroke-linecap="round" stroke-linejoin="round" fill="none"/><line x1="76.6" y1="78.2" x2="76.6" y2="78.2" stroke="#FFFFFF" stroke-width="3" stroke-linecap="round" stroke-linejoin="round" fill="none"/><line x1="22.2" y1="78.2" x2="22.2" y2="78.2" stroke="#FFFFFF" stroke-width="3" stroke-linecap="round" stroke-linejoin="round" fill="none"/><g><path d="M28.2 50.9 34.8 50.9 28.2 50.9Z" stroke="#FFFFFF" stroke-width="3" stroke-linecap="round" stroke-linejoin="round" fill="none"/><path d="M64.2 50.9 70.8 50.9 64.2 50.9Z" stroke="#FFFFFF" stroke-width="3" stroke-linecap="round" stroke-linejoin="round" fill="none"/><path d="M34.5 65.9 39.2 61.2 34.5 65.9Z" stroke="#FFFFFF" stroke-width="3" stroke-linecap="round" stroke-linejoin="round" fill="none"/><path d="M59.9 40.5 64.6 35.8 59.9 40.5Z" stroke="#FFFFFF" stroke-width="3" stroke-linecap="round" stroke-linejoin="round" fill="none"/><path d="M49.5 72.1 49.5 65.5 49.5 72.1Z" stroke="#FFFFFF" stroke-width="3" stroke-linecap="round" stroke-linejoin="round" fill="none"/><path d="M49.5 36.2 49.5 29.6 49.5 36.2Z" stroke="#FFFFFF" stroke-width="3" stroke-linecap="round" stroke-linejoin="round" fill="none"/><path d="M64.6 65.9 59.9 61.2 64.6 65.9Z" stroke="#FFFFFF" stroke-width="3" stroke-linecap="round" stroke-linejoin="round" fill="none"/><path d="M39.1 40.5 34.4 35.8 39.1 40.5Z" stroke="#FFFFFF" stroke-width="3" stroke-linecap="round" stroke-linejoin="round" fill="none"/><circle cx="49.5" cy="50.9" r="14.7" stroke="#FFFFFF" stroke-width="3" stroke-linecap="round" stroke-linejoin="round" fill="none"/><circle cx="49.5" cy="50.9" r="6.4" stroke="#FFFFFF" stroke-width="3" stroke-linecap="round" stroke-linejoin="round" fill="none"/></g><line x1="76.4" y1="23.5" x2="76.4" y2="23.5" stroke="#FFFFFF" stroke-width="3" stroke-linecap="round" stroke-linejoin="round" fill="none"/></svg>