<svg viewBox="0 0 100 100" xmlns="http://www.w3.org/2000/svg" xmlns:xlink="http://www.w3.org/1999/xlink" id="Layer_1" overflow="hidden"><style>
.MsftOfcThm_Background1_Fill_v2 {
 fill:#FFFFFF; 
}
</style>
<defs></defs><g><path d="M35.52 47C34.69 47 34.02 46.33 34.02 45.5L34.02 29 23.69 29C22.86 29 22.19 28.33 22.19 27.5 22.19 26.67 22.86 26 23.69 26L35.52 26C36.35 26 37.02 26.67 37.02 27.5L37.02 45.5C37.02 46.33 36.35 47 35.52 47Z" class="st0 MsftOfcThm_Background1_Fill_v2" stroke="none" stroke-width="1" stroke-linecap="butt" stroke-linejoin="miter" stroke-miterlimit="4" fill="#FFFFFF" fill-opacity="1"/><path d="M42.61 42C41.78 42 41.11 41.33 41.11 40.5L41.11 22.75C41.11 21.92 41.78 21.25 42.61 21.25 43.44 21.25 44.11 21.92 44.11 22.75L44.11 40.5C44.11 41.33 43.44 42 42.61 42Z" class="st0 MsftOfcThm_Background1_Fill_v2" stroke="none" stroke-width="1" stroke-linecap="butt" stroke-linejoin="miter" stroke-miterlimit="4" fill="#FFFFFF" fill-opacity="1"/><path d="M28.1 58.24C27.85 58.24 27.59 58.18 27.36 58.04L21.68 54.8C21.21 54.53 20.92 54.04 20.92 53.5L20.92 41 15.6 41C14.77 41 14.1 40.33 14.1 39.5 14.1 38.67 14.77 38 15.6 38L22.42 38C23.25 38 23.92 38.67 23.92 39.5L23.92 52.63 28.85 55.44C29.57 55.85 29.82 56.77 29.41 57.49 29.13 57.98 28.63 58.25 28.11 58.25Z" class="st0 MsftOfcThm_Background1_Fill_v2" stroke="none" stroke-width="1" stroke-linecap="butt" stroke-linejoin="miter" stroke-miterlimit="4" fill="#FFFFFF" fill-opacity="1"/><path d="M12.61 43.99C10.13 43.99 8.11 41.97 8.11 39.49 8.11 37.01 10.13 34.99 12.61 34.99 15.09 34.99 17.11 37.01 17.11 39.49 17.11 41.97 15.09 43.99 12.61 43.99ZM12.61 38C11.79 38 11.11 38.67 11.11 39.5 11.11 40.33 11.78 41 12.61 41 13.44 41 14.11 40.33 14.11 39.5 14.11 38.67 13.44 38 12.61 38Z" class="st0 MsftOfcThm_Background1_Fill_v2" stroke="none" stroke-width="1" stroke-linecap="butt" stroke-linejoin="miter" stroke-miterlimit="4" fill="#FFFFFF" fill-opacity="1"/><path d="M20.61 32C18.13 32 16.11 29.98 16.11 27.5 16.11 25.02 18.13 23 20.61 23 23.09 23 25.11 25.02 25.11 27.5 25.11 29.98 23.09 32 20.61 32ZM20.61 26C19.78 26 19.11 26.67 19.11 27.5 19.11 28.33 19.78 29 20.61 29 21.44 29 22.11 28.33 22.11 27.5 22.11 26.67 21.44 26 20.61 26Z" class="st0 MsftOfcThm_Background1_Fill_v2" stroke="none" stroke-width="1" stroke-linecap="butt" stroke-linejoin="miter" stroke-miterlimit="4" fill="#FFFFFF" fill-opacity="1"/><path d="M42.58 23.93C40.14 23.93 38.15 21.94 38.15 19.5 38.15 17.06 40.14 15.07 42.58 15.07 45.02 15.07 47.01 17.06 47.01 19.5 47.01 21.94 45.02 23.93 42.58 23.93ZM42.58 18.07C41.79 18.07 41.15 18.71 41.15 19.5 41.15 20.29 41.79 20.93 42.58 20.93 43.37 20.93 44.01 20.29 44.01 19.5 44.01 18.71 43.37 18.07 42.58 18.07Z" class="st0 MsftOfcThm_Background1_Fill_v2" stroke="none" stroke-width="1" stroke-linecap="butt" stroke-linejoin="miter" stroke-miterlimit="4" fill="#FFFFFF" fill-opacity="1"/><path d="M64.48 47C63.65 47 62.98 46.33 62.98 45.5L62.98 27.5C62.98 26.67 63.65 26 64.48 26L76.31 26C77.14 26 77.81 26.67 77.81 27.5 77.81 28.33 77.14 29 76.31 29L65.98 29 65.98 45.5C65.98 46.33 65.31 47 64.48 47Z" class="st0 MsftOfcThm_Background1_Fill_v2" stroke="none" stroke-width="1" stroke-linecap="butt" stroke-linejoin="miter" stroke-miterlimit="4" fill="#FFFFFF" fill-opacity="1"/><path d="M57.39 42C56.56 42 55.89 41.33 55.89 40.5L55.89 22.75C55.89 21.92 56.56 21.25 57.39 21.25 58.22 21.25 58.89 21.92 58.89 22.75L58.89 40.5C58.89 41.33 58.22 42 57.39 42Z" class="st0 MsftOfcThm_Background1_Fill_v2" stroke="none" stroke-width="1" stroke-linecap="butt" stroke-linejoin="miter" stroke-miterlimit="4" fill="#FFFFFF" fill-opacity="1"/><path d="M71.9 58.24C71.38 58.24 70.87 57.97 70.6 57.48 70.19 56.76 70.44 55.84 71.16 55.43L76.09 52.62 76.09 39.49C76.09 38.66 76.76 37.99 77.59 37.99L84.41 37.99C85.24 37.99 85.91 38.66 85.91 39.49 85.91 40.32 85.24 40.99 84.41 40.99L79.09 40.99 79.09 53.49C79.09 54.03 78.8 54.53 78.33 54.79L72.65 58.03C72.42 58.16 72.16 58.23 71.91 58.23Z" class="st0 MsftOfcThm_Background1_Fill_v2" stroke="none" stroke-width="1" stroke-linecap="butt" stroke-linejoin="miter" stroke-miterlimit="4" fill="#FFFFFF" fill-opacity="1"/><path d="M87.39 43.99C84.91 43.99 82.89 41.97 82.89 39.49 82.89 37.01 84.91 34.99 87.39 34.99 89.87 34.99 91.89 37.01 91.89 39.49 91.89 41.97 89.87 43.99 87.39 43.99ZM87.39 38C86.57 38 85.89 38.67 85.89 39.5 85.89 40.33 86.56 41 87.39 41 88.22 41 88.89 40.33 88.89 39.5 88.89 38.67 88.22 38 87.39 38Z" class="st0 MsftOfcThm_Background1_Fill_v2" stroke="none" stroke-width="1" stroke-linecap="butt" stroke-linejoin="miter" stroke-miterlimit="4" fill="#FFFFFF" fill-opacity="1"/><path d="M79.39 32C76.91 32 74.89 29.98 74.89 27.5 74.89 25.02 76.91 23 79.39 23 81.87 23 83.89 25.02 83.89 27.5 83.89 29.98 81.87 32 79.39 32ZM79.39 26C78.56 26 77.89 26.67 77.89 27.5 77.89 28.33 78.56 29 79.39 29 80.22 29 80.89 28.33 80.89 27.5 80.89 26.67 80.22 26 79.39 26Z" class="st0 MsftOfcThm_Background1_Fill_v2" stroke="none" stroke-width="1" stroke-linecap="butt" stroke-linejoin="miter" stroke-miterlimit="4" fill="#FFFFFF" fill-opacity="1"/><path d="M57.42 23.93C54.98 23.93 52.99 21.94 52.99 19.5 52.99 17.06 54.98 15.07 57.42 15.07 59.86 15.07 61.85 17.06 61.85 19.5 61.85 21.94 59.86 23.93 57.42 23.93ZM57.42 18.07C56.63 18.07 55.99 18.71 55.99 19.5 55.99 20.29 56.63 20.93 57.42 20.93 58.21 20.93 58.85 20.29 58.85 19.5 58.85 18.71 58.21 18.07 57.42 18.07Z" class="st0 MsftOfcThm_Background1_Fill_v2" stroke="none" stroke-width="1" stroke-linecap="butt" stroke-linejoin="miter" stroke-miterlimit="4" fill="#FFFFFF" fill-opacity="1"/></g><g><path d="M49.98 73.16C49.28 73.16 48.57 73.07 47.87 72.88 43.54 71.72 40.96 67.26 42.12 62.93 42.68 60.83 44.02 59.08 45.9 57.99 47.78 56.9 49.97 56.61 52.07 57.17 54.17 57.73 55.92 59.07 57.01 60.95 58.1 62.83 58.39 65.02 57.83 67.12L57.83 67.12C57.27 69.22 55.93 70.97 54.05 72.06 52.8 72.79 51.4 73.16 49.99 73.16ZM49.95 59.9C49.06 59.9 48.18 60.13 47.39 60.59 46.2 61.28 45.36 62.38 45 63.7 44.27 66.43 45.9 69.25 48.63 69.98 49.95 70.33 51.33 70.15 52.52 69.46 53.71 68.77 54.55 67.67 54.91 66.35L54.91 66.35C55.26 65.03 55.08 63.65 54.39 62.46 53.7 61.27 52.6 60.43 51.28 60.07 50.84 59.95 50.39 59.89 49.95 59.89Z" class="st0 MsftOfcThm_Background1_Fill_v2" stroke="none" stroke-width="1" stroke-linecap="butt" stroke-linejoin="miter" stroke-miterlimit="4" fill="#FFFFFF" fill-opacity="1"/><path d="M55.91 84.93C55.63 84.93 55.34 84.89 55.06 84.81 54.27 84.59 53.61 84.07 53.22 83.35L51.54 80.35C50.35 80.47 49.15 80.45 47.96 80.3L46.2 83.26C45.33 84.72 43.45 85.2 41.99 84.33L36.81 81.25C35.35 80.38 34.87 78.5 35.74 77.04L37.5 74.09C36.81 73.15 36.24 72.15 35.79 71.09L32.36 71.09C30.67 71.08 29.29 69.7 29.29 68L29.29 61.97C29.31 60.28 30.68 58.9 32.37 58.9L35.82 58.9C36.33 57.73 36.97 56.64 37.75 55.63L36.08 52.63C35.68 51.92 35.58 51.09 35.81 50.3 36.04 49.51 36.55 48.85 37.27 48.46L42.53 45.52C44.01 44.7 45.88 45.23 46.71 46.71L48.39 49.71C49.58 49.59 50.78 49.61 51.97 49.76L53.73 46.8C54.59 45.34 56.48 44.86 57.94 45.73L63.12 48.81C63.82 49.23 64.32 49.9 64.53 50.69 64.73 51.49 64.61 52.31 64.19 53.02L62.43 55.97C63.12 56.91 63.69 57.91 64.14 58.97L67.57 58.97C69.26 58.98 70.64 60.36 70.64 62.06L70.64 68.09C70.64 68.09 70.63 68.09 70.63 68.09 70.63 68.91 70.31 69.68 69.72 70.26 69.14 70.84 68.32 71.14 67.55 71.16L64.11 71.16C63.6 72.33 62.96 73.43 62.18 74.44L63.86 77.44C64.26 78.16 64.36 78.98 64.13 79.78 63.9 80.58 63.39 81.23 62.67 81.62L57.41 84.56C56.95 84.82 56.44 84.95 55.92 84.95ZM52.35 77.23C52.89 77.23 53.39 77.52 53.66 78L55.83 81.9C55.83 81.9 55.9 81.94 55.93 81.93L61.19 78.99C61.19 78.99 61.23 78.92 61.22 78.89L59.05 74.99C58.74 74.43 58.82 73.74 59.24 73.26 60.31 72.05 61.13 70.67 61.66 69.14 61.87 68.54 62.44 68.14 63.08 68.14L67.55 68.14C67.55 68.14 67.62 68.11 67.62 68.08L67.62 62.05C67.62 62.05 67.6 61.98 67.56 61.98L63.11 61.98C62.47 61.97 61.91 61.57 61.7 60.96 61.21 59.54 60.46 58.22 59.47 57.05 59.06 56.56 59 55.87 59.33 55.32L61.61 51.49C61.61 51.49 61.61 51.41 61.59 51.39L56.41 48.31C56.41 48.31 56.33 48.31 56.31 48.34L54.02 52.18C53.69 52.73 53.06 53.01 52.43 52.88 50.9 52.57 49.35 52.55 47.83 52.81 47.2 52.92 46.57 52.62 46.26 52.06L44.09 48.16C44.09 48.16 44.02 48.11 43.99 48.13L38.73 51.07C38.73 51.07 38.69 51.14 38.7 51.17L40.88 55.07C41.19 55.63 41.11 56.32 40.69 56.8 39.62 58.01 38.8 59.39 38.27 60.92 38.06 61.52 37.49 61.92 36.85 61.92L32.38 61.92C32.38 61.92 32.38 61.92 32.38 61.92 32.34 61.92 32.31 61.96 32.31 61.99L32.31 68.02C32.31 68.02 32.34 68.09 32.37 68.09L36.82 68.09C37.46 68.1 38.02 68.5 38.23 69.11 38.72 70.53 39.47 71.85 40.46 73.02 40.87 73.51 40.93 74.2 40.6 74.75L38.32 78.58C38.32 78.58 38.32 78.66 38.35 78.68L43.53 81.76C43.53 81.76 43.61 81.76 43.63 81.73L45.92 77.89C46.25 77.34 46.88 77.06 47.51 77.19 49.04 77.5 50.59 77.52 52.11 77.26 52.2 77.24 52.28 77.24 52.37 77.24ZM69.12 68.08 69.12 68.08 69.12 68.08Z" class="st0 MsftOfcThm_Background1_Fill_v2" stroke="none" stroke-width="1" stroke-linecap="butt" stroke-linejoin="miter" stroke-miterlimit="4" fill="#FFFFFF" fill-opacity="1"/></g></svg>