<svg viewBox="0 0 100 100" xmlns="http://www.w3.org/2000/svg" xmlns:xlink="http://www.w3.org/1999/xlink" id="Layer_1" xml:space="preserve" overflow="hidden"><g><g><path d="M67.4 83.1C67.1 83.1 66.8 83 66.5 82.8L63 80.2 59.5 82.7C59 83.1 58.3 83.1 57.7 82.7L54.2 80.1 50.7 82.6C50.2 83 49.5 83 48.9 82.6L45.4 80 42 82.4C41.5 82.8 40.8 82.8 40.2 82.4L36.7 79.8 33.2 82.3C32.7 82.7 32 82.7 31.4 82.3L27.2 79C26.8 78.7 26.6 78.3 26.6 77.8L26.6 21.4C26.6 20.9 26.8 20.4 27.2 20.2L31.6 17.1C32.1 16.7 32.8 16.7 33.3 17.1L36.8 19.7 40.3 17.2C40.8 16.8 41.5 16.8 42.1 17.2L45.6 19.8 49.1 17.3C49.6 16.9 50.3 16.9 50.9 17.3L54.4 19.9 57.9 17.4C58.4 17 59.1 17 59.7 17.4L63.2 20 66.7 17.5C67.2 17.1 67.9 17.1 68.5 17.5L72.8 20.7C73.5 21.2 73.6 22.1 73.1 22.8 72.6 23.5 71.7 23.6 71 23.1L67.5 20.5 64 23.3C63.5 23.7 62.8 23.7 62.2 23.3L58.7 20.7 55.2 23.2C54.7 23.6 54 23.6 53.4 23.2L50 20.5 46.5 23C46 23.4 45.3 23.4 44.7 23L41.2 20.4 37.7 22.9C37.2 23.3 36.5 23.3 36 22.9L32.5 20.3 29.6 22.3 29.6 77 32.4 79.1 35.9 76.6C36.4 76.2 37.1 76.2 37.7 76.6L41.2 79.2 44.7 76.7C45.2 76.3 45.9 76.3 46.5 76.7L50 79.3 53.5 76.8C54 76.4 54.7 76.4 55.3 76.8L58.8 79.4 62.3 76.9C62.8 76.5 63.5 76.5 64 76.9L67.5 79.5 70.4 77.5 70.4 31.9C70.4 31.1 71.1 30.4 71.9 30.4 72.7 30.4 73.4 31.1 73.4 31.9L73.4 78.6C73.4 79.1 73.2 79.6 72.8 79.8L68.4 82.9C68 83 67.7 83.1 67.4 83.1Z" fill="#FFFFFF"/></g><g><g><g><path d="M58.8 65.1C55.7 65.1 52.3 63.5 52.3 59.8 52.3 59 53 58.3 53.8 58.3 54.6 58.3 55.3 59 55.3 59.8 55.3 62 58.7 62.1 58.8 62.1 59.9 62.1 62 61.3 62 60.1 62 59.2 61.7 58.5 58.1 57.6 54.2 56.7 52.5 55.3 52.5 52.9 52.5 50.6 54.1 48.1 58.7 48.1 60.6 48.1 62.2 48.7 63.2 49.8 64.6 51.4 64.4 53.3 64.4 53.5 64.3 54.3 63.6 54.9 62.8 54.8 62 54.7 61.4 54 61.5 53.2 61.5 53.2 61.5 52.3 61 51.8 60.6 51.3 59.8 51.1 58.8 51.1 55.6 51.1 55.6 52.5 55.6 52.9 55.6 53.2 55.6 53.9 58.9 54.7 61.2 55.2 65.1 56.2 65.1 60.1 65.1 63.4 61.4 65.1 58.8 65.1Z" fill="#FFFFFF"/></g><g><path d="M58.7 68.7C57.9 68.7 57.2 68 57.2 67.2L57.2 64.4C57.2 63.6 57.9 62.9 58.7 62.9 59.5 62.9 60.2 63.6 60.2 64.4L60.2 67.2C60.2 68 59.5 68.7 58.7 68.7Z" fill="#FFFFFF"/></g><g><path d="M58.7 50.6C57.9 50.6 57.2 49.9 57.2 49.1L57.2 46.3C57.2 45.5 57.9 44.8 58.7 44.8 59.5 44.8 60.2 45.5 60.2 46.3L60.2 49.1C60.2 49.9 59.5 50.6 58.7 50.6Z" fill="#FFFFFF"/></g></g><g><path d="M63.2 41 36.4 41C35.6 41 34.9 40.3 34.9 39.5 34.9 38.7 35.6 38 36.4 38L63.1 38C63.9 38 64.6 38.7 64.6 39.5 64.6 40.3 64 41 63.2 41Z" fill="#FFFFFF"/></g><g><path d="M63.2 34 36.4 34C35.6 34 34.9 33.3 34.9 32.5 34.9 31.7 35.6 31 36.4 31L63.1 31C63.9 31 64.6 31.7 64.6 32.5 64.7 33.4 64 34 63.2 34Z" fill="#FFFFFF"/></g><g><path d="M47 47.9 36.4 47.9C35.6 47.9 34.9 47.2 34.9 46.4 34.9 45.6 35.6 44.9 36.4 44.9L47 44.9C47.8 44.9 48.5 45.6 48.5 46.4 48.5 47.2 47.9 47.9 47 47.9Z" fill="#FFFFFF"/></g><g><path d="M47 54.8 36.4 54.8C35.6 54.8 34.9 54.1 34.9 53.3 34.9 52.5 35.6 51.8 36.4 51.8L47 51.8C47.8 51.8 48.5 52.5 48.5 53.3 48.5 54.1 47.9 54.8 47 54.8Z" fill="#FFFFFF"/></g><g><path d="M47 61.7 36.4 61.7C35.6 61.7 34.9 61 34.9 60.2 34.9 59.4 35.6 58.7 36.4 58.7L47 58.7C47.8 58.7 48.5 59.4 48.5 60.2 48.5 61 47.9 61.7 47 61.7Z" fill="#FFFFFF"/></g><g><path d="M47 68.6 36.4 68.6C35.6 68.6 34.9 67.9 34.9 67.1 34.9 66.3 35.6 65.6 36.4 65.6L47 65.6C47.8 65.6 48.5 66.3 48.5 67.1 48.5 67.9 47.9 68.6 47 68.6Z" fill="#FFFFFF"/></g></g></g></svg>