<svg viewBox="0 0 100 100" xmlns="http://www.w3.org/2000/svg" xmlns:xlink="http://www.w3.org/1999/xlink" id="Layer_1" overflow="hidden"><defs></defs><g><g><path d="M77.28 57.1C76.88 57.1 76.5 56.94 76.22 56.66 76.15 56.59 76.09 56.51 76.03 56.43 75.98 56.35 75.93 56.26 75.89 56.17 75.86 56.08 75.83 55.99 75.81 55.89 75.79 55.8 75.78 55.7 75.78 55.6 75.78 55.2 75.94 54.82 76.22 54.54 76.29 54.47 76.36 54.41 76.45 54.35 76.53 54.3 76.61 54.25 76.7 54.21 76.8 54.18 76.89 54.15 76.99 54.13 77.48 54.03 77.99 54.19 78.34 54.54 78.62 54.82 78.78 55.2 78.78 55.6 78.78 55.7 78.78 55.8 78.75 55.89 78.73 55.99 78.7 56.08 78.66 56.17 78.63 56.26 78.58 56.35 78.53 56.43 78.47 56.51 78.41 56.59 78.34 56.66 78.06 56.94 77.67 57.1 77.28 57.1Z" fill="#1742F5"/><path d="M58.67 76.52C58.37 75.75 58.76 74.88 59.53 74.58L59.53 74.58C60.3 74.28 61.17 74.67 61.47 75.44L61.47 75.44C61.77 76.21 61.39 77.08 60.61 77.38L60.61 77.38C60.43 77.45 60.24 77.48 60.06 77.48L60.06 77.48C59.46 77.48 58.89 77.12 58.66 76.52ZM62.94 74.72C62.52 74.01 62.75 73.09 63.46 72.66L63.46 72.66C64.18 72.24 65.1 72.47 65.52 73.18L65.52 73.18C65.95 73.89 65.71 74.82 65 75.24L65 75.24C64.76 75.38 64.5 75.45 64.23 75.45L64.23 75.45C63.72 75.45 63.22 75.19 62.94 74.72ZM66.86 72.23C66.32 71.6 66.4 70.65 67.03 70.12L67.03 70.12C67.66 69.58 68.61 69.66 69.14 70.29L69.14 70.29C69.68 70.92 69.6 71.87 68.97 72.4L68.97 72.4C68.69 72.64 68.34 72.76 68 72.76L68 72.76C67.57 72.76 67.15 72.58 66.86 72.23ZM70.3 69.13C69.67 68.59 69.59 67.65 70.12 67.01L70.12 67.01C70.66 66.38 71.61 66.3 72.24 66.84L72.24 66.84C72.87 67.37 72.95 68.32 72.42 68.95L72.42 68.95C72.12 69.3 71.7 69.48 71.27 69.48L71.27 69.48C70.93 69.48 70.58 69.37 70.3 69.13ZM73.19 65.5C72.48 65.08 72.24 64.16 72.67 63.44L72.67 63.44C73.09 62.73 74.01 62.5 74.72 62.92L74.72 62.92C75.43 63.34 75.67 64.26 75.25 64.98L75.25 64.98C74.97 65.45 74.47 65.71 73.95 65.71L73.95 65.71C73.69 65.71 73.43 65.64 73.19 65.5ZM75.44 61.44C74.67 61.15 74.28 60.28 74.58 59.51L74.58 59.51C74.88 58.73 75.75 58.35 76.52 58.65L76.52 58.65C77.29 58.94 77.68 59.81 77.38 60.59L77.38 60.59C77.15 61.18 76.58 61.55 75.98 61.55L75.98 61.55C75.8 61.55 75.62 61.51 75.44 61.44Z" fill="#1742F5"/><path d="M55.62 78.79C55.23 78.79 54.84 78.63 54.56 78.35 54.28 78.07 54.12 77.68 54.12 77.29 54.12 76.9 54.28 76.51 54.56 76.23 55.12 75.67 56.12 75.67 56.68 76.23 56.96 76.51 57.12 76.89 57.12 77.29 57.12 77.69 56.96 78.07 56.68 78.35 56.4 78.63 56.02 78.79 55.62 78.79Z" fill="#1742F5"/></g><path d="M50.01 79.35C33.84 79.35 20.69 66.2 20.69 50.03 20.69 33.86 33.84 20.71 50.01 20.71 66.18 20.71 79.33 33.86 79.33 50.03 79.33 50.86 78.66 51.53 77.83 51.53 77 51.53 76.33 50.86 76.33 50.03 76.33 35.52 64.52 23.71 50.01 23.71 35.5 23.71 23.69 35.52 23.69 50.03 23.69 64.54 35.5 76.35 50.01 76.35 50.84 76.35 51.51 77.02 51.51 77.85 51.51 78.68 50.84 79.35 50.01 79.35Z" fill="#1742F5"/><path d="M55.85 88.91C55.12 88.91 54.48 88.38 54.37 87.64 54.24 86.82 54.8 86.06 55.62 85.93 73.13 83.22 86.34 67.78 86.34 50.03 86.34 40.88 82.93 32.14 76.73 25.41 76.17 24.8 76.21 23.85 76.82 23.29 77.43 22.73 78.38 22.77 78.94 23.38 85.65 30.66 89.35 40.12 89.35 50.03 89.35 69.56 75.36 85.91 56.09 88.89 56.01 88.9 55.93 88.91 55.86 88.91Z" fill="#1742F5"/><path d="M22.23 77.21C21.83 77.21 21.42 77.05 21.13 76.73 14.39 69.44 10.68 59.96 10.68 50.04 10.68 30.54 25.22 13.8 44.5 11.09 45.31 10.97 46.08 11.55 46.19 12.37 46.3 13.19 45.73 13.95 44.91 14.06 27.1 16.56 13.68 32.02 13.68 50.04 13.68 59.21 17.11 67.97 23.33 74.7 23.89 75.31 23.86 76.26 23.25 76.82 22.96 77.09 22.6 77.22 22.23 77.22Z" fill="#1742F5"/><path d="M50.01 93.99C46.63 93.99 43.88 91.24 43.88 87.86 43.88 84.48 46.63 81.73 50.01 81.73 53.39 81.73 56.14 84.48 56.14 87.86 56.14 91.24 53.39 93.99 50.01 93.99ZM50.01 84.73C48.28 84.73 46.88 86.13 46.88 87.86 46.88 89.59 48.28 90.99 50.01 90.99 51.74 90.99 53.14 89.59 53.14 87.86 53.14 86.13 51.74 84.73 50.01 84.73Z" fill="#1742F5"/><path d="M50.01 18.27C46.63 18.27 43.88 15.52 43.88 12.14 43.88 8.76 46.63 6.01 50.01 6.01 53.39 6.01 56.14 8.76 56.14 12.14 56.14 15.52 53.39 18.27 50.01 18.27ZM50.01 9.01C48.28 9.01 46.88 10.41 46.88 12.14 46.88 13.87 48.28 15.27 50.01 15.27 51.74 15.27 53.14 13.87 53.14 12.14 53.14 10.41 51.74 9.01 50.01 9.01Z" fill="#1742F5"/><path d="M12.16 89.86C11.05 89.86 10.15 88.96 10.15 87.85 10.15 86.74 11.05 85.84 12.16 85.84 13.27 85.84 14.17 86.74 14.17 87.85 14.17 88.96 13.27 89.86 12.16 89.86Z" fill="#1742F5"/><path d="M87.84 89.86C86.73 89.86 85.83 88.96 85.83 87.85 85.83 86.74 86.73 85.84 87.84 85.84 88.95 85.84 89.85 86.74 89.85 87.85 89.85 88.96 88.95 89.86 87.84 89.86Z" fill="#1742F5"/><path d="M12.16 13.86C11.05 13.86 10.15 12.96 10.15 11.85 10.15 10.74 11.05 9.84 12.16 9.84 13.27 9.84 14.17 10.74 14.17 11.85 14.17 12.96 13.27 13.86 12.16 13.86Z" fill="#1742F5"/><path d="M87.84 13.86C86.73 13.86 85.83 12.96 85.83 11.85 85.83 10.74 86.73 9.84 87.84 9.84 88.95 9.84 89.85 10.74 89.85 11.85 89.85 12.96 88.95 13.86 87.84 13.86Z" fill="#1742F5"/></g><g><path d="M50 57.81C48.65 57.81 47.31 57.45 46.11 56.74 44.34 55.7 43.09 54.03 42.57 52.04 42.06 50.05 42.35 47.98 43.39 46.22 44.43 44.46 46.1 43.2 48.09 42.68 50.07 42.16 52.14 42.46 53.91 43.5 55.68 44.54 56.93 46.21 57.45 48.2L57.45 48.2C57.96 50.19 57.67 52.26 56.63 54.02 55.59 55.78 53.92 57.04 51.93 57.56 51.29 57.73 50.64 57.81 50 57.81ZM50.02 45.44C49.63 45.44 49.23 45.49 48.84 45.59 47.63 45.9 46.61 46.67 45.98 47.75 45.35 48.83 45.17 50.09 45.48 51.3 45.79 52.51 46.56 53.53 47.64 54.16 48.72 54.79 49.98 54.97 51.19 54.66 52.4 54.35 53.42 53.58 54.05 52.5 54.68 51.42 54.86 50.16 54.55 48.95L54.55 48.95C54.24 47.74 53.47 46.72 52.39 46.09 51.66 45.66 50.85 45.44 50.02 45.44Z" fill="#1742F5"/><path d="M52.63 70.85C52.63 70.85 52.58 70.85 52.56 70.85L46.53 70.71C44.84 70.67 43.49 69.26 43.53 67.57L43.61 64.13C42.55 63.65 41.56 63.06 40.65 62.36L37.66 64.04C36.95 64.44 36.12 64.54 35.33 64.32 34.54 64.1 33.88 63.58 33.48 62.87L30.53 57.61C30.13 56.9 30.03 56.07 30.25 55.28 30.47 54.49 30.99 53.83 31.7 53.43L34.7 51.75C34.56 50.48 34.59 49.21 34.77 47.94L31.84 46.15C30.39 45.27 29.94 43.37 30.82 41.93L33.96 36.78C34.39 36.08 35.06 35.59 35.86 35.4 36.66 35.21 37.48 35.33 38.18 35.76L41.12 37.55C42.1 36.86 43.15 36.28 44.26 35.84L44.34 32.4C44.36 31.58 44.7 30.82 45.29 30.25 45.88 29.68 46.68 29.39 47.48 29.4L53.51 29.54C55.2 29.58 56.55 30.99 56.51 32.68L56.43 36.12C57.49 36.6 58.48 37.19 59.39 37.89L62.38 36.21C63.09 35.81 63.92 35.71 64.71 35.93 65.5 36.15 66.16 36.67 66.56 37.38L69.51 42.63C69.91 43.34 70.01 44.17 69.79 44.96 69.57 45.75 69.05 46.41 68.34 46.81L65.34 48.49C65.48 49.76 65.45 51.03 65.27 52.3L68.2 54.09C68.9 54.52 69.39 55.19 69.58 55.99 69.77 56.79 69.64 57.61 69.22 58.31L66.08 63.45C65.65 64.15 64.98 64.64 64.18 64.83 63.38 65.02 62.56 64.89 61.86 64.47L58.92 62.68C57.94 63.37 56.89 63.94 55.78 64.39L55.7 67.83C55.66 69.5 54.29 70.83 52.63 70.83ZM40.8 59.06C41.16 59.06 41.51 59.19 41.79 59.43 42.92 60.42 44.22 61.2 45.65 61.74 46.25 61.96 46.64 62.54 46.62 63.18L46.52 67.64C46.52 67.64 46.56 67.71 46.59 67.71L52.62 67.85 52.62 67.85C52.62 67.85 52.69 67.82 52.69 67.78L52.79 63.31C52.8 62.67 53.22 62.11 53.83 61.92 55.32 61.44 56.68 60.7 57.87 59.72 58.36 59.31 59.06 59.27 59.6 59.6L63.41 61.93C63.41 61.93 63.49 61.93 63.51 61.91L66.65 56.76C66.65 56.76 66.63 56.66 66.63 56.66L62.82 54.33C62.28 54 62 53.36 62.14 52.73 62.48 51.15 62.51 49.55 62.22 47.95 62.11 47.32 62.41 46.69 62.96 46.38L66.85 44.19C66.85 44.19 66.89 44.12 66.88 44.09L66.88 44.09 63.93 38.83C63.93 38.83 63.86 38.79 63.83 38.8L59.95 40.98C59.4 41.29 58.7 41.22 58.22 40.8 57.09 39.81 55.79 39.03 54.36 38.49 53.76 38.27 53.37 37.69 53.39 37.05L53.49 32.59C53.49 32.59 53.45 32.52 53.42 32.52L47.39 32.38C47.39 32.38 47.32 32.42 47.32 32.45L47.22 36.92C47.21 37.56 46.79 38.12 46.18 38.31 44.69 38.79 43.34 39.53 42.14 40.51 41.65 40.92 40.95 40.96 40.41 40.63L36.6 38.3C36.6 38.3 36.52 38.3 36.5 38.32L33.36 43.47C33.36 43.47 33.36 43.55 33.38 43.57L37.19 45.9C37.73 46.23 38.01 46.87 37.87 47.5 37.53 49.08 37.5 50.68 37.78 52.28 37.89 52.91 37.59 53.54 37.04 53.85L33.15 56.04C33.15 56.04 33.11 56.11 33.12 56.14L36.07 61.4 36.07 61.4C36.07 61.4 36.17 61.43 36.17 61.43L36.17 61.43 40.05 59.25C40.28 59.12 40.53 59.06 40.78 59.06Z" fill="#1742F5"/></g></svg>