<svg viewBox="0 0 100 100" xmlns="http://www.w3.org/2000/svg" xmlns:xlink="http://www.w3.org/1999/xlink" id="Layer_1" xml:space="preserve" overflow="hidden"><g><g><g><path d="M35.5 47C34.7 47 34 46.3 34 45.5L34 29 23.7 29C22.9 29 22.2 28.3 22.2 27.5 22.2 26.7 22.9 26 23.7 26L35.5 26C36.3 26 37 26.7 37 27.5L37 45.5C37 46.3 36.3 47 35.5 47Z" fill="#FFFFFF"/></g><g><path d="M42.6 42C41.8 42 41.1 41.3 41.1 40.5L41.1 22.7C41.1 21.9 41.8 21.2 42.6 21.2 43.4 21.2 44.1 21.9 44.1 22.7L44.1 40.5C44.1 41.3 43.4 42 42.6 42Z" fill="#FFFFFF"/></g><g><path d="M28.1 58.2C27.8 58.2 27.6 58.1 27.4 58L21.7 54.8C21.2 54.5 20.9 54 20.9 53.5L20.9 41 15.6 41C14.8 41 14.1 40.3 14.1 39.5 14.1 38.7 14.8 38 15.6 38L22.4 38C23.2 38 23.9 38.7 23.9 39.5L23.9 52.6 28.8 55.4C29.5 55.8 29.8 56.7 29.4 57.4 29.1 58 28.6 58.2 28.1 58.2Z" fill="#FFFFFF"/></g><g><path d="M12.6 44C10.1 44 8.1 42 8.1 39.5 8.1 37 10.1 35 12.6 35 15.1 35 17.1 37 17.1 39.5 17.1 42 15.1 44 12.6 44ZM12.6 38C11.8 38 11.1 38.7 11.1 39.5 11.1 40.3 11.8 41 12.6 41 13.4 41 14.1 40.3 14.1 39.5 14.1 38.7 13.4 38 12.6 38Z" fill="#FFFFFF"/></g><g><path d="M20.6 32C18.1 32 16.1 30 16.1 27.5 16.1 25 18.1 23 20.6 23 23.1 23 25.1 25 25.1 27.5 25.1 30 23.1 32 20.6 32ZM20.6 26C19.8 26 19.1 26.7 19.1 27.5 19.1 28.3 19.8 29 20.6 29 21.4 29 22.1 28.3 22.1 27.5 22.1 26.7 21.4 26 20.6 26Z" fill="#FFFFFF"/></g><g><path d="M42.6 23.9C40.2 23.9 38.2 21.9 38.2 19.5 38.2 17.1 40.2 15.1 42.6 15.1 45 15.1 47 17.1 47 19.5 47 21.9 45 23.9 42.6 23.9ZM42.6 18.1C41.8 18.1 41.2 18.7 41.2 19.5 41.2 20.3 41.8 20.9 42.6 20.9 43.4 20.9 44 20.3 44 19.5 44 18.7 43.4 18.1 42.6 18.1Z" fill="#FFFFFF"/></g><g><path d="M64.5 47C63.7 47 63 46.3 63 45.5L63 27.5C63 26.7 63.7 26 64.5 26L76.3 26C77.1 26 77.8 26.7 77.8 27.5 77.8 28.3 77.1 29 76.3 29L66 29 66 45.5C66 46.3 65.3 47 64.5 47Z" fill="#FFFFFF"/></g><g><path d="M57.4 42C56.6 42 55.9 41.3 55.9 40.5L55.9 22.7C55.9 21.9 56.6 21.2 57.4 21.2 58.2 21.2 58.9 21.9 58.9 22.7L58.9 40.5C58.9 41.3 58.2 42 57.4 42Z" fill="#FFFFFF"/></g><g><path d="M71.9 58.2C71.4 58.2 70.9 57.9 70.6 57.4 70.2 56.7 70.4 55.8 71.2 55.4L76.1 52.6 76.1 39.5C76.1 38.7 76.8 38 77.6 38L84.4 38C85.2 38 85.9 38.7 85.9 39.5 85.9 40.3 85.2 41 84.4 41L79.1 41 79.1 53.5C79.1 54 78.8 54.5 78.3 54.8L72.6 58C72.4 58.2 72.2 58.2 71.9 58.2Z" fill="#FFFFFF"/></g><g><path d="M87.4 44C84.9 44 82.9 42 82.9 39.5 82.9 37 84.9 35 87.4 35 89.9 35 91.9 37 91.9 39.5 91.9 42 89.9 44 87.4 44ZM87.4 38C86.6 38 85.9 38.7 85.9 39.5 85.9 40.3 86.6 41 87.4 41 88.2 41 88.9 40.3 88.9 39.5 88.9 38.7 88.2 38 87.4 38Z" fill="#FFFFFF"/></g><g><path d="M79.4 32C76.9 32 74.9 30 74.9 27.5 74.9 25 76.9 23 79.4 23 81.9 23 83.9 25 83.9 27.5 83.9 30 81.9 32 79.4 32ZM79.4 26C78.6 26 77.9 26.7 77.9 27.5 77.9 28.3 78.6 29 79.4 29 80.2 29 80.9 28.3 80.9 27.5 80.9 26.7 80.2 26 79.4 26Z" fill="#FFFFFF"/></g><g><path d="M57.4 23.9C55 23.9 53 21.9 53 19.5 53 17.1 55 15.1 57.4 15.1 59.8 15.1 61.8 17.1 61.8 19.5 61.8 21.9 59.9 23.9 57.4 23.9ZM57.4 18.1C56.6 18.1 56 18.7 56 19.5 56 20.3 56.6 20.9 57.4 20.9 58.2 20.9 58.8 20.3 58.8 19.5 58.8 18.7 58.2 18.1 57.4 18.1Z" fill="#FFFFFF"/></g></g><g><g><path d="M50 73.2C49.3 73.2 48.6 73.1 47.9 72.9 43.6 71.7 41 67.3 42.1 63 42.7 60.9 44 59.1 45.9 58.1 47.8 57 50 56.7 52.1 57.3 54.2 57.9 56 59.2 57 61.1 58.1 63 58.4 65.2 57.8 67.3L57.8 67.3C57.2 69.4 55.9 71.2 54 72.2 52.8 72.8 51.4 73.2 50 73.2ZM50 59.9C49.1 59.9 48.2 60.1 47.4 60.6 46.2 61.3 45.4 62.4 45 63.7 44.3 66.4 45.9 69.2 48.6 70 49.9 70.4 51.3 70.2 52.5 69.5 53.7 68.8 54.5 67.7 54.9 66.4L54.9 66.4C55.3 65.1 55.1 63.7 54.4 62.5 53.7 61.3 52.6 60.5 51.3 60.1 50.8 60 50.4 59.9 50 59.9Z" fill="#FFFFFF"/></g><g><path d="M55.9 84.9C55.6 84.9 55.3 84.9 55.1 84.8 54.3 84.6 53.7 84.1 53.3 83.3L51.6 80.3C50.4 80.4 49.2 80.4 48 80.2L46.2 83.2C45.3 84.7 43.4 85.1 42 84.3L36.8 81.2C35.3 80.3 34.9 78.4 35.7 77L37.5 74C36.8 73.1 36.2 72.1 35.8 71L32.4 71C30.7 71 29.3 69.6 29.3 67.9L29.3 61.9C29.3 60.2 30.7 58.8 32.4 58.8 32.4 58.8 32.4 58.8 32.4 58.8L35.8 58.8C36.3 57.6 37 56.5 37.7 55.5L36 52.5C35.6 51.8 35.5 51 35.7 50.2 35.9 49.4 36.4 48.8 37.2 48.4L42.5 45.5C44 44.7 45.9 45.2 46.7 46.7L48.4 49.7C49.6 49.6 50.8 49.6 52 49.8L53.8 46.8C54.7 45.3 56.6 44.9 58 45.7L63.2 48.8C63.9 49.2 64.4 49.9 64.6 50.7 64.8 51.5 64.7 52.3 64.3 53L62.5 56C63.2 56.9 63.8 57.9 64.2 59L67.6 59C69.3 59 70.7 60.4 70.7 62.1L70.7 68.1 70.7 68.1C70.7 69.8 69.3 71.2 67.6 71.2 67.6 71.2 67.6 71.2 67.6 71.2L64.2 71.2C63.7 72.4 63 73.5 62.3 74.5L64 77.5C64.4 78.2 64.5 79 64.3 79.8 64.1 80.6 63.6 81.2 62.8 81.6L57.5 84.5C56.9 84.8 56.4 84.9 55.9 84.9ZM52.4 77.2C52.9 77.2 53.4 77.5 53.7 78L55.9 81.9C55.9 81.9 56 81.9 56 81.9L61.3 79C61.3 79 61.3 78.9 61.3 78.9L59.1 75C58.8 74.4 58.9 73.8 59.3 73.3 60.4 72.1 61.2 70.7 61.7 69.2 61.9 68.6 62.5 68.2 63.1 68.2 63.1 68.2 63.1 68.2 63.1 68.2L67.6 68.2 67.6 68.2C67.6 68.2 67.7 68.2 67.7 68.1L67.7 62.1C67.7 62.1 67.7 62 67.6 62L63.1 62C62.5 62 61.9 61.6 61.7 61 61.2 59.6 60.5 58.3 59.5 57.1 59.1 56.6 59 55.9 59.4 55.4L61.7 51.6C61.7 51.6 61.7 51.5 61.7 51.5L56.5 48.4C56.5 48.4 56.4 48.4 56.4 48.4L54 52.2C53.7 52.7 53 53 52.4 52.9 50.9 52.6 49.3 52.6 47.8 52.8 47.2 52.9 46.5 52.6 46.2 52.1L44 48.2C44 48.2 43.9 48.2 43.9 48.2L38.6 51.1C38.6 51.1 38.6 51.2 38.6 51.2L40.8 55.1C41.1 55.7 41 56.4 40.6 56.8 39.5 58 38.7 59.4 38.2 60.9 38 61.5 37.4 61.9 36.8 61.9 36.8 61.9 36.8 61.9 36.8 61.9L32.3 61.9 32.3 61.9C32.3 61.9 32.2 61.9 32.2 62L32.2 68C32.2 68 32.2 68.1 32.3 68.1L36.8 68.1C37.4 68.1 38 68.5 38.2 69.1 38.7 70.5 39.4 71.8 40.4 73 40.8 73.5 40.9 74.2 40.5 74.7L38.2 78.5C38.2 78.5 38.2 78.6 38.2 78.6L43.4 81.7C43.4 81.7 43.5 81.7 43.5 81.7L45.8 77.9C46.1 77.4 46.8 77.1 47.4 77.2 48.9 77.5 50.5 77.5 52 77.3 52.2 77.2 52.3 77.2 52.4 77.2ZM69.1 68.1 69.1 68.1 69.1 68.1Z" fill="#FFFFFF"/></g></g></g></svg>